<svg width="1440" height="333" viewBox="0 0 1440 333" fill="none" xmlns="http://www.w3.org/2000/svg">
<path d="M-25.4622 330.075L-13.4915 332.5M-25.4622 330.075L10.0124 330.075M-25.4622 330.075L-37.8309 327.571M-25.4622 330.075L-50.5854 330.075M-13.4915 332.5L-17.8473 332.499L-22.1581 332.494L-26.3791 332.479L-30.4678 332.45L-34.3792 332.403L-38.0716 332.332L-41.5008 332.233L-44.6839 332.107L-47.4153 331.933L-49.902 331.732L-50.5854 331.661L-50.5854 330.075M-13.4915 332.5L21.4127 332.5M21.4127 332.5L56.3168 332.5M21.4127 332.5L10.0124 330.075M56.3168 332.5L91.2218 332.5M56.3168 332.5L45.4868 330.075M91.2218 332.5L126.126 332.5M91.2218 332.5L80.9605 330.075M126.126 332.5L161.03 332.5M126.126 332.5L116.435 330.075M161.03 332.5L195.935 332.5M161.03 332.5L151.909 330.075M195.935 332.5L230.839 332.5M195.935 332.5L187.384 330.075M230.839 332.5L265.743 332.5M230.839 332.5L222.858 330.075M265.743 332.5L300.648 332.5M265.743 332.5L258.333 330.075M300.648 332.5L335.552 332.5M300.648 332.5L293.807 330.075M335.552 332.5L370.456 332.5M335.552 332.5L329.282 330.075M370.456 332.5L405.36 332.5M370.456 332.5L364.756 330.075M405.36 332.5L440.265 332.5M405.36 332.5L404.094 331.901L402.173 330.994L400.231 330.075M440.265 332.5L475.169 332.5M440.265 332.5L439.139 331.901L435.705 330.075M475.169 332.5L510.074 332.5M475.169 332.5L471.179 330.075M510.074 332.5L544.978 332.5M510.074 332.5L508.805 331.6L507.519 330.689L507.087 330.383L506.653 330.075M544.978 332.5L579.883 332.5M544.978 332.5L543.92 331.6L543.564 331.298L543.207 330.994L542.128 330.075M579.883 332.5L614.787 332.5M579.883 332.5L577.602 330.075M614.787 332.5L614.576 332.201L614.365 331.901L613.294 330.383L613.077 330.075M614.787 332.5L649.691 332.5M649.691 332.5L684.596 332.5M649.691 332.5L648.551 330.075M684.596 332.5L719.5 332.5M684.596 332.5L684.384 331.6L684.025 330.075M719.5 332.5L754.404 332.5M719.5 332.5L719.5 330.075M754.404 332.5L789.309 332.5M754.404 332.5L754.616 331.6L754.974 330.075M789.309 332.5L824.213 332.5M789.309 332.5L790.449 330.075M824.213 332.5L824.424 332.201L824.635 331.901L825.706 330.383L825.923 330.075M824.213 332.5L859.117 332.5M859.117 332.5L894.022 332.5M859.117 332.5L861.108 330.383L861.398 330.075M894.022 332.5L928.926 332.5M894.022 332.5L895.079 331.6L895.436 331.298L896.151 330.689L896.51 330.383L896.872 330.075M928.926 332.5L963.83 332.5M928.926 332.5L930.195 331.6L931.481 330.689L931.913 330.383L932.347 330.075M963.83 332.5L998.735 332.5M963.83 332.5L967.82 330.075M998.735 332.5L1033.64 332.5M998.735 332.5L999.861 331.901L1003.29 330.075M1033.64 332.5L1068.54 332.5M1033.64 332.5L1038.77 330.075M1068.54 332.5L1103.45 332.5M1068.54 332.5L1074.24 330.075M1103.45 332.5L1138.35 332.5M1103.45 332.5L1109.72 330.075M1138.35 332.5L1173.26 332.5M1138.35 332.5L1145.19 330.075M1173.26 332.5L1208.16 332.5M1173.26 332.5L1180.67 330.075M1208.16 332.5L1243.06 332.5M1208.16 332.5L1216.14 330.075M1243.06 332.5L1277.97 332.5M1243.06 332.5L1251.62 330.075M1277.97 332.5L1312.87 332.5M1277.97 332.5L1287.09 330.075M1312.87 332.5L1347.78 332.5M1312.87 332.5L1322.56 330.075M1347.78 332.5L1382.68 332.5M1347.78 332.5L1358.04 330.075M1382.68 332.5L1417.59 332.5M1382.68 332.5L1393.51 330.075M1417.59 332.5L1452.49 332.5M1417.59 332.5L1428.99 330.075M1452.49 332.5L1456.85 332.499L1461.16 332.494L1465.38 332.479L1469.47 332.45L1473.38 332.403L1477.07 332.332L1480.5 332.233L1483.68 332.107L1486.42 331.933L1488.9 331.732L1489.59 331.661L1489.59 330.075M1452.49 332.5L1464.46 330.075M1393.51 330.075L1358.04 330.075M1393.51 330.075L1428.99 330.075M1393.51 330.075L1404.7 327.571M1358.04 330.075L1368.64 327.571M1358.04 330.075L1322.56 330.075M1251.62 330.075L1216.14 330.075M1251.62 330.075L1287.09 330.075M1251.62 330.075L1253.8 329.457L1260.45 327.571M1216.14 330.075L1224.39 327.571M1216.14 330.075L1180.67 330.075M1109.72 330.075L1074.24 330.075M1109.72 330.075L1145.19 330.075M1109.72 330.075L1111.32 329.457L1112.12 329.146L1116.2 327.571M1074.24 330.075L1074.97 329.767L1075.7 329.457L1080.13 327.571M1074.24 330.075L1038.77 330.075M967.82 330.075L968.329 329.767L971.944 327.571M967.82 330.075L932.347 330.075M967.82 330.075L1003.29 330.075M932.347 330.075L933.219 329.457L933.658 329.146L934.099 328.834L935.88 327.571M932.347 330.075L896.872 330.075M825.923 330.075L790.449 330.075M825.923 330.075L861.398 330.075M825.923 330.075L827.69 327.571M790.449 330.075L790.594 329.767L790.739 329.457L790.886 329.146L791.329 328.205L791.626 327.571M790.449 330.075L754.974 330.075M684.025 330.075L648.551 330.075M684.025 330.075L719.5 330.075M684.025 330.075L683.437 327.571M648.551 330.075L648.406 329.767L648.261 329.457L648.114 329.146L647.374 327.571M648.551 330.075L613.077 330.075M542.128 330.075L506.653 330.075M542.128 330.075L577.602 330.075M542.128 330.075L541.401 329.457L539.928 328.205L539.557 327.889L539.183 327.571M506.653 330.075L505.781 329.457L505.342 329.146L504.901 328.833L503.12 327.571M506.653 330.075L471.179 330.075M400.231 330.075L364.756 330.075M400.231 330.075L435.705 330.075M400.231 330.075L398.922 329.457L398.263 329.146L394.93 327.571M364.756 330.075L364.03 329.767L363.302 329.457L358.867 327.571M364.756 330.075L329.282 330.075M258.333 330.075L222.858 330.075M258.333 330.075L293.807 330.075M258.333 330.075L256.442 329.457L255.491 329.146L250.676 327.571M222.858 330.075L214.613 327.571M222.858 330.075L187.384 330.075M116.435 330.075L80.9605 330.075M116.435 330.075L151.909 330.075M116.435 330.075L106.423 327.571M80.9605 330.075L70.3591 327.571M80.9605 330.075L45.4868 330.075M1489.71 307.402L1489.59 307.402M1454 307.402L1440.46 310.602M1454 307.402L1468.07 304.08M1454 307.402L1413.2 307.402M1454 307.402L1489.59 307.402M1440.46 310.602L1480.51 310.602M1440.46 310.602L1427.41 313.686M1440.46 310.602L1400.41 310.602M1480.51 310.602L1466.73 313.686M1480.51 310.602L1489.59 310.602M1480.51 310.602L1489.59 308.572M1440.62 319.531L1402.67 319.531M1440.62 319.531L1428.24 322.303M1440.62 319.531L1478.58 319.531M1440.62 319.531L1453.45 316.661M1402.67 319.531L1390.94 322.303M1402.67 319.531L1414.82 316.661M1402.67 319.531L1364.71 319.531M1428.24 322.303L1390.94 322.303M1428.24 322.303L1416.27 324.981M1428.24 322.303L1465.54 322.303M1390.94 322.303L1353.63 322.303M1390.94 322.303L1379.6 324.981M1489.98 256.895L1489.59 256.895M1457.05 256.894L1439.59 262.2M1457.05 256.894L1475.38 251.325M1457.05 256.894L1404.37 256.894M1457.05 256.894L1489.59 256.895M1439.59 262.2L1422.93 267.26M1439.59 262.2L1388.15 262.2M1439.59 262.2L1489.59 262.2M1473.17 267.26L1422.93 267.26M1473.17 267.26L1456.13 272.091M1473.17 267.26L1489.59 267.26M1473.17 267.26L1489.59 262.606M1439.85 276.708L1391.82 276.708M1439.85 276.708L1424.27 281.126M1439.85 276.708L1487.87 276.708M1439.85 276.708L1456.13 272.091M1391.82 276.708L1377.28 281.126M1391.82 276.708L1407.02 272.091M1391.82 276.708L1343.8 276.708M1424.27 281.126L1377.28 281.126M1424.27 281.126L1471.25 281.126M1424.27 281.126L1409.34 285.356M1377.28 281.126L1363.35 285.356M1377.28 281.126L1330.3 281.126M1381.32 293.302L1337.2 293.302M1381.32 293.302L1368.14 297.037M1381.32 293.302L1425.44 293.302M1381.32 293.302L1395.04 289.412M1337.2 293.302L1324.9 297.037M1337.2 293.302L1350 289.412M1337.2 293.302L1293.08 293.302M1368.14 297.037L1324.9 297.037M1368.14 297.037L1411.39 297.037M1368.14 297.037L1355.48 300.627M1324.9 297.037L1313.08 300.627M1324.9 297.037L1281.66 297.037M1331.59 307.402L1290.78 307.402M1331.59 307.402L1320.3 310.602M1331.59 307.402L1372.39 307.402M1331.59 307.402L1343.31 304.08M1290.78 307.402L1280.25 310.602M1290.78 307.402L1301.72 304.08M1290.78 307.402L1249.98 307.402M1320.3 310.602L1280.25 310.602M1320.3 310.602L1360.35 310.602M1320.3 310.602L1309.42 313.686M1280.25 310.602L1270.09 313.686M1280.25 310.602L1240.19 310.602M1288.81 319.531L1250.85 319.531M1288.81 319.531L1279.03 322.303M1288.81 319.531L1326.76 319.531M1288.81 319.531L1298.93 316.661M1250.85 319.531L1241.73 322.303M1250.85 319.531L1260.3 316.661M1250.85 319.531L1212.9 319.531M1279.03 322.303L1241.73 322.303M1279.03 322.303L1269.58 324.981M1279.03 322.303L1316.33 322.303M1241.73 322.303L1204.43 322.303M1241.73 322.303L1232.91 324.981M1462.59 164.917L1438.01 175.371M1462.59 164.917L1488.92 153.723M1462.59 164.917L1388.29 164.917M1462.59 164.917L1489.59 164.917M1438.01 175.371L1415.01 185.155M1438.01 175.371L1366.16 175.371M1438.01 175.371L1489.59 175.371M1438.51 202.957L1373.15 202.957M1438.51 202.957L1417.51 211.078M1438.51 202.957L1460.82 194.332M1438.51 202.957L1489.59 202.957M1373.15 202.957L1354.05 211.078M1373.15 202.957L1393.43 194.332M1373.15 202.957L1307.78 202.957M1417.51 211.078L1354.05 211.078M1417.51 211.078L1480.96 211.078M1417.51 211.078L1397.7 218.738M1354.05 211.078L1336.04 218.738M1354.05 211.078L1290.6 211.078M1361.26 232.823L1302.92 232.823M1361.26 232.823L1344.48 239.313M1361.26 232.823L1419.61 232.823M1361.26 232.823L1378.98 225.975M1302.92 232.823L1287.66 239.313M1302.92 232.823L1319.02 225.975M1302.92 232.823L1244.58 232.823M1344.48 239.313L1287.66 239.313M1344.48 239.313L1401.29 239.313M1344.48 239.313L1328.55 245.472M1287.66 239.313L1273.18 245.472M1287.66 239.313L1230.85 239.313M1299 256.894L1246.32 256.894M1299 256.894L1285.28 262.2M1299 256.894L1351.69 256.894M1299 256.894L1313.41 251.325M1246.32 256.894L1233.85 262.2M1246.32 256.894L1259.42 251.325M1246.32 256.894L1193.64 256.894M1285.28 262.2L1233.85 262.2M1285.28 262.2L1336.72 262.2M1285.28 262.2L1272.19 267.26M1233.85 262.2L1221.95 267.26M1233.85 262.2L1182.41 262.2M1247.75 276.708L1199.73 276.708M1247.75 276.708L1236.33 281.126M1247.75 276.708L1295.78 276.708M1247.75 276.708L1259.7 272.091M1199.73 276.708L1189.34 281.126M1199.73 276.708L1210.59 272.091M1199.73 276.708L1151.71 276.708M1236.33 281.126L1189.34 281.126M1236.33 281.126L1283.31 281.126M1236.33 281.126L1225.39 285.356M1189.34 281.126L1179.4 285.356M1189.34 281.126L1142.36 281.126M1204.83 293.302L1160.71 293.302M1204.83 293.302L1195.17 297.037M1204.83 293.302L1248.96 293.302M1204.83 293.302L1214.9 289.412M1160.71 293.302L1159.59 293.777L1151.93 297.037M1160.71 293.302L1169.86 289.412M1160.71 293.302L1116.59 293.302M1195.17 297.037L1151.93 297.037M1195.17 297.037L1238.41 297.037M1195.17 297.037L1185.89 300.627M1151.93 297.037L1143.49 300.627M1151.93 297.037L1108.69 297.037M1168.36 307.402L1127.56 307.402M1168.36 307.402L1160.09 310.602M1168.36 307.402L1209.17 307.402M1168.36 307.402L1176.96 304.08M1127.56 307.402L1120.03 310.602M1127.56 307.402L1130.45 306.171L1135.37 304.08M1127.56 307.402L1086.75 307.402M1160.09 310.602L1120.03 310.602M1160.09 310.602L1200.14 310.602M1160.09 310.602L1152.11 313.686M1120.03 310.602L1112.78 313.686M1120.03 310.602L1079.98 310.602M1136.99 319.531L1099.04 319.531M1136.99 319.531L1129.82 322.303M1136.99 319.531L1174.95 319.531M1136.99 319.531L1144.42 316.661M1099.04 319.531L1094.13 321.619L1093.32 321.962L1092.52 322.303M1099.04 319.531L1105.79 316.661M1099.04 319.531L1061.08 319.531M1129.82 322.303L1092.52 322.303M1129.82 322.303L1122.89 324.981M1129.82 322.303L1167.12 322.303M1092.52 322.303L1055.22 322.303M1092.52 322.303L1086.22 324.981M1435.67 45.8359L1333.36 45.8359M1435.67 45.8359L1403.46 65.408M1435.67 45.8359L1471.07 24.3286M1435.67 45.8359L1489.59 45.8355M1333.36 45.8359L1305.75 65.4079M1333.36 45.8359L1363.7 24.3286M1333.36 45.8359L1231.05 45.8359M1403.46 65.408L1305.75 65.4079M1403.46 65.408L1374.01 83.295M1403.46 65.408L1489.59 65.408M1305.75 65.4079L1280.51 83.295M1305.75 65.4079L1208.04 65.4079M1322.13 114.816L1236.04 114.816M1322.13 114.816L1299.16 128.774M1322.13 114.816L1408.22 114.816M1322.13 114.816L1347 99.7058M1236.04 114.816L1216.35 128.774M1236.04 114.816L1257.36 99.7058M1236.04 114.816L1149.95 114.816M1299.16 128.774L1216.35 128.774M1299.16 128.774L1381.97 128.774M1299.16 128.774L1277.87 141.706M1216.35 128.774L1198.1 141.706M1216.35 128.774L1133.54 128.774M1239.67 164.917L1165.36 164.917M1239.67 164.917L1222.46 175.371M1239.67 164.917L1313.98 164.917M1239.67 164.917L1258.09 153.723M1165.36 164.917L1150.61 175.371M1165.36 164.917L1181.15 153.723M1165.36 164.917L1091.05 164.917M1222.46 175.371L1150.61 175.371M1222.46 175.371L1294.31 175.371M1222.46 175.371L1206.36 185.155M1150.61 175.371L1136.8 185.155M1150.61 175.371L1078.76 175.371M1177.05 202.957L1111.69 202.957M1177.05 202.957L1163.69 211.078M1177.05 202.957L1242.42 202.957M1177.05 202.957L1191.25 194.332M1111.69 202.957L1100.23 211.078M1111.69 202.957L1123.86 194.332M1111.69 202.957L1046.32 202.957M1163.69 211.078L1100.23 211.078M1163.69 211.078L1227.14 211.078M1163.69 211.078L1151.08 218.738M1100.23 211.078L1089.42 218.738M1100.23 211.078L1036.78 211.078M1127.9 232.823L1069.55 232.823M1127.9 232.823L1117.21 239.313M1127.9 232.823L1186.24 232.823M1127.9 232.823L1139.17 225.975M1069.55 232.823L1060.4 239.313M1069.55 232.823L1079.21 225.975M1069.55 232.823L1011.21 232.823M1117.21 239.313L1060.4 239.313M1117.21 239.313L1174.03 239.313M1117.21 239.313L1107.08 245.472M1060.4 239.313L1051.71 245.472M1060.4 239.313L1003.58 239.313M1088.27 256.894L1035.59 256.894M1088.27 256.894L1079.54 262.2M1088.27 256.894L1140.96 256.894M1088.27 256.894L1097.44 251.325M1035.59 256.894L1028.11 262.2M1035.59 256.894L1043.45 251.325M1035.59 256.894L982.911 256.894M1079.54 262.2L1028.11 262.2M1079.54 262.2L1130.98 262.2M1079.54 262.2L1071.21 267.259M1028.11 262.2L1020.97 267.259M1028.11 262.2L976.673 262.2M1055.66 276.708L1007.64 276.708M1055.66 276.708L1048.39 281.126M1055.66 276.708L1103.69 276.708M1055.66 276.708L1063.26 272.091M1007.64 276.708L1001.41 281.126M1007.64 276.708L1014.15 272.091M1007.64 276.708L959.616 276.708M1048.39 281.126L1001.41 281.126M1048.39 281.126L1095.38 281.126M1048.39 281.126L1041.43 285.356M1001.41 281.126L995.438 285.356M1001.41 281.126L954.422 281.126M1028.35 293.302L984.227 293.302M1028.35 293.302L1022.2 297.037M1028.35 293.302L1072.47 293.302M1028.35 293.302L1034.75 289.412M984.227 293.302L984.902 292.824L989.716 289.412M984.227 293.302L978.958 297.037M984.227 293.302L940.106 293.302M1022.2 297.037L978.958 297.037M1022.2 297.037L1065.44 297.037M1022.2 297.037L1016.29 300.627M978.958 297.037L973.893 300.627M978.958 297.037L935.714 297.037M1005.14 307.402L964.335 307.402M1005.14 307.402L999.874 310.602M1005.14 307.402L1045.95 307.402M1005.14 307.402L1010.61 304.08M964.335 307.402L959.82 310.602M964.335 307.402L966.072 306.171L967.244 305.34L969.022 304.08M964.335 307.402L923.529 307.402M999.874 310.602L959.82 310.602M999.874 310.602L1039.93 310.602M999.874 310.602L994.797 313.686M959.82 310.602L958.169 311.772L957.082 312.543L955.469 313.686M959.82 310.602L919.767 310.602M985.176 319.531L947.223 319.531M985.176 319.531L981.74 321.619L980.614 322.303M985.176 319.531L1023.13 319.531M985.176 319.531L989.302 317.025L989.901 316.661M947.223 319.531L944.277 321.619L943.794 321.962L943.312 322.303M947.223 319.531L949.23 318.109L951.272 316.661M947.223 319.531L909.269 319.531M980.614 322.303L943.312 322.303M980.614 322.303L976.205 324.981M980.614 322.303L1017.92 322.303M943.312 322.303L906.01 322.303M943.312 322.303L939.533 324.981M1026.43 45.8358L924.12 45.8358M1026.43 45.8358L1012.62 65.4079M1026.43 45.8358L1128.74 45.8358M1026.43 45.8358L1041.6 24.3285M924.12 45.8358L914.915 65.4079M924.12 45.8358L934.234 24.3285M924.12 45.8358L821.81 45.8358M1012.62 65.4079L914.915 65.4079M1012.62 65.4079L1110.33 65.4079M1012.62 65.4079L1000.01 83.295M914.915 65.4079L906.504 83.295M914.915 65.4079L817.208 65.4079M977.771 114.816L891.681 114.816M977.771 114.816L967.925 128.774M977.771 114.816L1063.86 114.816M977.771 114.816L988.43 99.7058M891.681 114.816L885.116 128.774M891.681 114.816L898.786 99.7058M891.681 114.816L805.59 114.816M967.925 128.774L885.116 128.774M967.925 128.774L1050.73 128.774M967.925 128.774L958.802 141.706M885.116 128.774L879.034 141.706M885.116 128.774L802.308 128.774M942.428 164.917L868.119 164.917M942.428 164.917L935.054 175.371M942.428 164.917L1016.74 164.917M942.428 164.917L950.325 153.723M868.119 164.917L863.203 175.371M868.119 164.917L873.383 153.723M868.119 164.917L793.809 164.917M935.054 175.371L863.203 175.371M935.054 175.371L1006.91 175.371M935.054 175.371L928.152 185.155M863.203 175.371L858.601 185.155M863.203 175.371L791.351 175.371M915.594 202.957L850.23 202.957M915.594 202.957L909.866 211.078M915.594 202.957L980.959 202.957M915.594 202.957L921.679 194.332M850.23 202.957L846.411 211.078M850.23 202.957L854.286 194.332M850.23 202.957L784.865 202.957M909.866 211.078L846.411 211.078M909.866 211.078L973.321 211.078M909.866 211.078L904.462 218.738M846.411 211.078L842.808 218.738M846.411 211.078L782.955 211.078M894.527 232.823L836.184 232.823M894.527 232.823L889.949 239.313M894.527 232.823L952.869 232.823M894.527 232.823L899.357 225.975M836.184 232.823L833.132 239.313M836.184 232.823L839.405 225.975M836.184 232.823L777.842 232.823M889.949 239.313L833.132 239.313M889.949 239.313L946.764 239.313M889.949 239.313L885.603 245.472M833.132 239.313L830.236 245.472M833.132 239.313L776.316 239.313M877.546 256.894L824.864 256.894M877.546 256.894L873.804 262.2M877.546 256.894L930.228 256.894M877.546 256.894L881.475 251.325M824.864 256.894L822.369 262.2M824.864 256.894L827.484 251.325M824.864 256.894L772.182 256.894M873.804 262.2L822.369 262.2M873.804 262.2L925.239 262.2M873.804 262.2L872.445 264.125L870.234 267.259M822.369 262.2L819.99 267.259M822.369 262.2L770.934 262.2M863.569 276.708L815.546 276.708M863.569 276.708L860.453 281.126M863.569 276.708L911.593 276.708M863.569 276.708L865.998 273.264L866.827 272.091M815.546 276.708L814.756 278.387L813.469 281.126M815.546 276.708L817.718 272.091M815.546 276.708L767.523 276.708M860.453 281.126L860.073 281.665L857.469 285.356M860.453 281.126L813.469 281.126M860.453 281.126L907.438 281.126M813.469 281.126L812.712 282.733L812.464 283.264L812.215 283.791L811.479 285.356M813.469 281.126L766.484 281.126M851.864 293.302L807.743 293.302M851.864 293.302L850.533 295.189L850.204 295.654L849.878 296.118L849.552 296.579L849.229 297.037M851.864 293.302L895.985 293.302M851.864 293.302L854.608 289.412M807.743 293.302L806.418 296.118L806.201 296.579L805.986 297.037M807.743 293.302L809.572 289.412M807.743 293.302L763.621 293.302M849.229 297.037L805.986 297.037M849.229 297.037L892.471 297.037M849.229 297.037L847.634 299.298L847.32 299.743L846.696 300.627M805.986 297.037L804.923 299.298L804.713 299.743L804.505 300.186L804.298 300.627M805.986 297.037L762.743 297.037M841.917 307.402L801.111 307.402M841.917 307.402L839.66 310.602M841.917 307.402L882.724 307.402M841.917 307.402L842.495 306.583L843.372 305.34L844.261 304.08M801.111 307.402L801.304 306.994L802.476 304.502L802.674 304.08M801.111 307.402L799.606 310.602M801.111 307.402L760.306 307.402M839.66 310.602L799.606 310.602M839.66 310.602L879.713 310.602M839.66 310.602L837.484 313.686M799.606 310.602L799.056 311.772L798.875 312.158L798.694 312.543L798.156 313.686M799.606 310.602L759.553 310.602M833.361 319.531L795.408 319.531M833.361 319.531L831.888 321.619L831.406 322.303M833.361 319.531L871.315 319.531M833.361 319.531L834.113 318.467L834.365 318.109L834.619 317.749L835.387 316.661M795.408 319.531L795.242 319.883L794.914 320.582L794.587 321.275L794.104 322.303M795.408 319.531L796.077 318.109L796.245 317.749L796.586 317.025L796.757 316.661M795.408 319.531L757.454 319.531M831.406 322.303L794.104 322.303M831.406 322.303L829.75 324.651L829.516 324.981M831.406 322.303L868.708 322.303M794.104 322.303L793.944 322.643L793.785 322.981L793.626 323.318L793.469 323.654L793 324.651L792.844 324.981M794.104 322.303L756.802 322.303M617.19 45.8358L514.879 45.8358M617.19 45.8358L621.792 65.4079M617.19 45.8358L719.5 45.8358M617.19 45.8358L612.132 24.3285M514.879 45.8358L524.084 65.4079M514.879 45.8358L504.766 24.3285M514.879 45.8358L412.57 45.8358M621.792 65.4079L524.084 65.4079M621.792 65.4079L719.5 65.4079M621.792 65.4079L625.998 83.295M524.084 65.4079L532.496 83.295M524.084 65.4079L426.376 65.4079M633.41 114.816L547.319 114.816M633.41 114.816L636.692 128.774M633.41 114.816L719.5 114.816M633.41 114.816L629.856 99.7058M547.319 114.816L553.884 128.774M547.319 114.816L540.214 99.7057M547.319 114.816L461.229 114.816M636.692 128.774L553.884 128.774M636.692 128.774L719.5 128.774M636.692 128.774L639.733 141.706M553.884 128.774L559.965 141.706M553.884 128.774L471.075 128.774M645.191 164.917L570.881 164.917M645.191 164.917L647.649 175.371M645.191 164.917L719.5 164.917M645.191 164.917L642.558 153.723M570.881 164.917L575.797 175.371M570.881 164.917L565.617 153.723M570.881 164.917L496.571 164.917M647.649 175.371L575.797 175.371M647.649 175.371L719.5 175.371M647.649 175.371L649.949 185.155M575.797 175.371L580.398 185.155M575.797 175.371L503.946 175.371M654.135 202.957L588.77 202.957M654.135 202.957L656.045 211.078M654.135 202.957L719.5 202.957M654.135 202.957L652.107 194.332M588.77 202.957L592.589 211.078M588.77 202.957L584.714 194.332M588.77 202.957L523.406 202.957M656.045 211.078L592.589 211.078M656.045 211.078L719.5 211.078M656.045 211.078L657.846 218.738M592.589 211.078L596.192 218.738M592.589 211.078L529.134 211.078M661.158 232.823L602.816 232.823M661.158 232.823L662.684 239.313M661.158 232.823L719.5 232.823M661.158 232.823L659.547 225.975M602.816 232.823L605.867 239.313M602.816 232.823L599.595 225.975M602.816 232.823L544.473 232.823M662.684 239.313L605.867 239.313M662.684 239.313L719.5 239.313M662.684 239.313L664.132 245.472M605.867 239.313L608.764 245.472M605.867 239.313L549.051 239.313M666.818 256.894L614.135 256.894M666.818 256.894L668.065 262.2M666.818 256.894L719.5 256.894M666.818 256.894L665.508 251.325M614.135 256.894L616.631 262.2M614.135 256.894L611.516 251.325M614.135 256.894L561.454 256.894M668.065 262.2L616.631 262.2M668.065 262.2L719.5 262.2M668.065 262.2L669.255 267.259M616.631 262.2L619.01 267.259M616.631 262.2L565.196 262.2M671.477 276.708L623.453 276.708M671.477 276.708L672.516 281.126M671.477 276.708L719.5 276.708M671.477 276.708L670.391 272.091M623.453 276.708L625.277 280.584L625.531 281.126M623.453 276.708L621.282 272.091M623.453 276.708L575.431 276.708M672.516 281.126L672.642 281.665L673.511 285.356M672.516 281.126L625.531 281.126M672.516 281.126L719.5 281.126M625.531 281.126L626.288 282.733L626.536 283.264L626.785 283.791L627.52 285.356M625.531 281.126L578.547 281.126M675.379 293.302L631.257 293.302M675.379 293.302L676.257 297.037M675.379 293.302L719.5 293.302M675.379 293.302L675.04 291.862L674.926 291.377L674.812 290.889L674.581 289.907L674.464 289.411M631.257 293.302L632.581 296.118L633.015 297.037M631.257 293.302L629.428 289.411M631.257 293.302L587.136 293.302M676.257 297.037L633.015 297.037M676.257 297.037L719.5 297.037M676.257 297.037L677.101 300.627M633.015 297.037L634.077 299.298L634.287 299.743L634.495 300.186L634.702 300.627M633.015 297.037L589.771 297.037M678.694 307.402L637.889 307.402M678.694 307.402L679.447 310.602M678.694 307.402L719.5 307.402M678.694 307.402L677.913 304.08M637.889 307.402L637.696 306.994L636.524 304.502L636.326 304.08M637.889 307.402L639.393 310.602M637.889 307.402L597.083 307.402M679.447 310.602L639.393 310.602M679.447 310.602L719.5 310.602M679.447 310.602L680.172 313.686M639.393 310.602L639.944 311.772L640.125 312.158L640.306 312.543L640.844 313.686M639.393 310.602L599.34 310.602M681.546 319.531L643.592 319.531M681.546 319.531L682.198 322.303M681.546 319.531L719.5 319.531M681.546 319.531L680.871 316.661M643.592 319.531L643.758 319.883L644.087 320.582L644.25 320.929L644.575 321.619L644.735 321.962L644.896 322.303M643.592 319.531L642.923 318.109L642.755 317.749L642.414 317.025L642.243 316.661M643.592 319.531L605.639 319.531M682.198 322.303L682.278 322.643L682.358 322.981L682.436 323.318L682.828 324.981M682.198 322.303L644.896 322.303M682.198 322.303L719.5 322.303M644.896 322.303L607.594 322.303M644.896 322.303L645.215 322.981L645.374 323.318L645.531 323.654L646 324.651L646.156 324.981M207.949 45.8358L105.639 45.8358M207.949 45.8358L230.96 65.4078M207.949 45.8358L310.259 45.8358M207.949 45.8358L182.663 24.3285M105.639 45.8358L133.253 65.4078M105.639 45.8358L75.2964 24.3285M105.639 45.8358L3.32858 45.8357M230.96 65.4078L133.253 65.4078M230.96 65.4078L328.668 65.4079M230.96 65.4078L251.99 83.2949M133.253 65.4078L158.488 83.2949M133.253 65.4078L35.5438 65.4078M289.049 114.816L202.958 114.816M289.049 114.816L305.459 128.774M289.049 114.816L375.139 114.816M289.049 114.816L271.284 99.7057M202.958 114.816L222.651 128.774M202.958 114.816L181.641 99.7057M202.958 114.816L116.868 114.816M305.459 128.774L222.651 128.774M305.459 128.774L388.267 128.774M305.459 128.774L320.664 141.706M222.651 128.774L240.897 141.706M222.651 128.774L139.842 128.774M347.952 164.917L273.643 164.917M347.952 164.917L360.243 175.371M347.952 164.917L422.262 164.917M347.952 164.917L334.791 153.723M273.643 164.917L288.391 175.371M273.643 164.917L257.85 153.723M273.643 164.917L199.334 164.917M360.243 175.371L288.391 175.371M360.243 175.371L432.094 175.371M360.243 175.371L371.746 185.155M288.391 175.371L302.196 185.155M288.391 175.371L216.541 175.371M392.676 202.957L327.311 202.957M392.676 202.957L402.223 211.078M392.676 202.957L458.041 202.957M392.676 202.957L382.536 194.332M327.311 202.957L338.768 211.078M327.311 202.957L315.143 194.332M327.311 202.957L261.946 202.957M402.223 211.078L338.768 211.078M402.223 211.078L465.679 211.078M402.223 211.078L411.229 218.738M338.768 211.078L349.575 218.738M338.768 211.078L275.313 211.078M427.789 232.823L369.447 232.823M427.789 232.823L435.419 239.313M427.789 232.823L486.131 232.823M427.789 232.823L419.738 225.975M369.447 232.823L378.603 239.313M369.447 232.823L359.785 225.975M369.447 232.823L311.104 232.823M435.419 239.313L378.603 239.313M435.419 239.313L492.236 239.313M435.419 239.313L442.661 245.472M378.603 239.313L387.292 245.472M378.603 239.313L321.787 239.313M456.089 256.894L403.407 256.894M456.089 256.894L462.327 262.2M456.089 256.894L508.772 256.894M456.089 256.894L449.542 251.325M403.407 256.894L410.892 262.2M403.407 256.894L395.55 251.325M403.407 256.894L350.725 256.894M462.327 262.2L410.892 262.2M462.327 262.2L513.761 262.2M462.327 262.2L468.276 267.259M410.892 262.2L418.031 267.259M410.892 262.2L359.458 262.2M479.384 276.708L478.719 276.142L478.049 275.573L473.956 272.091M479.384 276.708L431.361 276.708M479.384 276.708L484.578 281.126M479.384 276.708L527.407 276.708M431.361 276.708L437.593 281.126M431.361 276.708L424.847 272.091M431.361 276.708L383.338 276.708M484.578 281.126L437.593 281.126M484.578 281.126L531.562 281.126M484.578 281.126L489.552 285.356M437.593 281.126L443.562 285.356M437.593 281.126L390.609 281.126M498.894 293.302L454.772 293.302M498.894 293.302L503.286 297.037M498.894 293.302L543.015 293.302M498.894 293.302L494.32 289.411M454.772 293.302L458.091 295.654L460.042 297.037M454.772 293.302L449.283 289.411M454.772 293.302L410.651 293.302M503.286 297.037L460.042 297.037M503.286 297.037L546.528 297.037M503.286 297.037L506.987 300.186L507.506 300.627M460.042 297.037L465.107 300.627M460.042 297.037L416.799 297.037M515.471 307.402L474.665 307.402M515.471 307.402L516.424 308.213L519.233 310.602M515.471 307.402L556.276 307.402M515.471 307.402L514.508 306.583L512.555 304.922L511.565 304.08M474.665 307.402L479.18 310.602M474.665 307.402L472.928 306.171L471.756 305.34L469.978 304.08M474.665 307.402L433.859 307.402M519.233 310.602L479.18 310.602M519.233 310.602L559.287 310.602M519.233 310.602L521.965 312.926L522.86 313.686M479.18 310.602L480.83 311.772L481.918 312.543L483.531 313.686M479.18 310.602L439.126 310.602M529.731 319.531L491.777 319.531M529.731 319.531L531.781 321.275L532.99 322.303M529.731 319.531L567.685 319.531M529.731 319.531L526.356 316.66M491.777 319.531L494.723 321.619L495.206 321.962L495.688 322.303M491.777 319.531L489.77 318.109L487.727 316.66M491.777 319.531L453.824 319.531M532.99 322.303L495.688 322.303M532.99 322.303L534.578 323.654L535.361 324.32L535.751 324.651L536.139 324.981M532.99 322.303L570.292 322.303M495.688 322.303L458.386 322.303M495.688 322.303L499.467 324.981M-25.7742 128.774L57.034 128.774M-25.7742 128.774L1.59432 141.706M-25.7742 128.774L-50.5854 128.774M-25.7742 128.774L-50.5854 117.049M50.7146 164.917L-23.5948 164.917M50.7146 164.917L72.8369 175.371M50.7146 164.917L125.024 164.917M50.7146 164.917L27.0249 153.723M-23.5948 164.917L0.985554 175.371M-23.5948 164.917L-49.9173 153.723M-23.5948 164.917L-50.5854 164.917M72.8369 175.371L0.985554 175.371M72.8369 175.371L144.688 175.371M72.8369 175.371L93.5433 185.155M0.985554 175.371L23.9925 185.155M0.985554 175.371L-50.5854 175.371M131.217 202.957L65.8515 202.957M131.217 202.957L148.402 211.078M131.217 202.957L196.581 202.957M131.217 202.957L112.964 194.332M65.8515 202.957L84.9465 211.078M65.8515 202.957L45.571 194.332M65.8515 202.957L0.486528 202.957M148.402 211.078L84.9465 211.078M148.402 211.078L211.857 211.078M148.402 211.078L164.613 218.738M84.9465 211.078L102.958 218.738M84.9465 211.078L21.4913 211.078M194.42 232.823L136.079 232.823M194.42 232.823L208.154 239.313M194.42 232.823L252.762 232.823M194.42 232.823L179.928 225.975M136.079 232.823L151.339 239.313M136.079 232.823L119.975 225.975M136.079 232.823L77.7357 232.823M208.154 239.313L151.339 239.313M208.154 239.313L264.971 239.313M208.154 239.313L221.189 245.472M151.339 239.313L165.821 245.472M151.339 239.313L94.5228 239.313M245.361 256.894L192.679 256.894M245.361 256.894L256.588 262.2M245.361 256.894L298.043 256.894M245.361 256.894L233.575 251.325M192.679 256.894L205.153 262.2M192.679 256.894L179.583 251.325M192.679 256.894L139.997 256.894M256.588 262.2L205.153 262.2M256.588 262.2L308.022 262.2M256.588 262.2L267.296 267.259M205.153 262.2L217.051 267.259M205.153 262.2L153.719 262.2M287.291 276.708L239.268 276.708M287.291 276.708L296.64 281.126M287.291 276.708L335.315 276.708M287.291 276.708L277.52 272.09M239.268 276.708L249.656 281.126M239.268 276.708L228.411 272.09M239.268 276.708L191.245 276.708M296.64 281.126L249.656 281.126M296.64 281.126L343.624 281.126M296.64 281.126L305.593 285.356M249.656 281.126L259.604 285.356M249.656 281.126L202.672 281.126M322.409 293.302L278.288 293.302M322.409 293.302L330.314 297.037M322.409 293.302L366.53 293.302M322.409 293.302L314.175 289.411M278.288 293.302L287.071 297.037M278.288 293.302L269.139 289.411M278.288 293.302L234.166 293.302M330.314 297.037L287.071 297.037M330.314 297.037L373.557 297.037M330.314 297.037L337.911 300.627M287.071 297.037L295.512 300.627M287.071 297.037L243.828 297.037M352.248 307.402L311.442 307.402M352.248 307.402L359.02 310.602M352.248 307.402L393.054 307.402M352.248 307.402L350.514 306.583L349.642 306.171L345.216 304.08M311.442 307.402L318.966 310.602M311.442 307.402L303.629 304.08M311.442 307.402L270.636 307.402M359.02 310.602L318.966 310.602M359.02 310.602L399.073 310.602M359.02 310.602L365.546 313.686M318.966 310.602L326.218 313.686M318.966 310.602L278.913 310.602M377.916 319.531L339.962 319.531M377.916 319.531L383.782 322.303M377.916 319.531L415.87 319.531M377.916 319.531L371.841 316.66M339.962 319.531L344.872 321.619L345.677 321.962L346.48 322.303M339.962 319.531L333.212 316.66M339.962 319.531L302.009 319.531M383.782 322.303L346.48 322.303M383.782 322.303L388.751 324.651L389.45 324.981M383.782 322.303L421.084 322.303M346.48 322.303L309.178 322.303M346.48 322.303L352.777 324.981M-38.9483 232.823L-19.1098 239.313M-38.9483 232.823L19.3936 232.823M-38.9483 232.823L-50.5854 229.016M-38.9483 232.823L-50.5854 232.823M-19.1098 239.313L37.7065 239.313M-19.1098 239.313L-0.282763 245.472M-19.1098 239.313L-50.5854 239.313M34.6326 256.894L-18.0501 256.894M34.6326 256.894L50.8502 262.2M34.6326 256.894L87.3144 256.894M34.6326 256.894L17.6087 251.325M-18.0501 256.894L-0.585132 262.2M-18.0501 256.894L-36.383 251.325M-18.0501 256.894L-50.5854 256.894M50.8502 262.2L-0.585132 262.2M50.8502 262.2L102.285 262.2M50.8502 262.2L66.3169 267.259M-0.585132 262.2L16.0719 267.259M-0.585132 262.2L-50.5854 262.2M95.1989 276.708L47.1754 276.708M95.1989 276.708L108.703 281.126M95.1989 276.708L143.222 276.708M95.1989 276.708L81.0841 272.09M47.1754 276.708L61.7187 281.126M47.1754 276.708L31.9758 272.09M47.1754 276.708L-0.847585 276.708M108.703 281.126L61.7187 281.126M108.703 281.126L155.688 281.126M108.703 281.126L121.635 285.356M61.7187 281.126L75.6452 285.356M61.7187 281.126L14.7338 281.126M145.923 293.302L101.802 293.302M145.923 293.302L157.342 297.037M145.923 293.302L190.045 293.302M145.923 293.302L134.031 289.411M101.802 293.302L114.099 297.037M101.802 293.302L88.995 289.411M101.802 293.302L57.6805 293.302M157.342 297.037L114.099 297.037M157.342 297.037L200.585 297.037M157.342 297.037L168.315 300.627M114.099 297.037L125.916 300.627M114.099 297.037L70.8563 297.037M189.024 307.402L148.219 307.402M189.024 307.402L198.806 310.602M189.024 307.402L229.83 307.402M189.024 307.402L178.868 304.08M148.219 307.402L158.753 310.602M148.219 307.402L137.281 304.08M148.219 307.402L107.413 307.402M198.806 310.602L158.753 310.602M198.806 310.602L238.86 310.602M198.806 310.602L208.234 313.686M158.753 310.602L168.906 313.686M158.753 310.602L118.699 310.602M226.101 319.531L188.147 319.531M226.101 319.531L234.574 322.303M226.101 319.531L264.055 319.531M226.101 319.531L217.327 316.66M188.147 319.531L197.272 322.303M188.147 319.531L178.697 316.66M188.147 319.531L150.193 319.531M234.574 322.303L197.272 322.303M234.574 322.303L242.761 324.981M234.574 322.303L271.876 322.303M197.272 322.303L159.97 322.303M197.272 322.303L206.089 324.981M-30.5615 293.302L-15.6292 297.037M-30.5615 293.302L13.5595 293.302M-30.5615 293.302L-46.1133 289.411M-30.5615 293.302L-50.5854 293.302M-15.6292 297.037L27.6135 297.037M-15.6292 297.037L-1.27984 300.627M-15.6292 297.037L-50.5854 297.037M25.8013 307.402L-15.0042 307.402M25.8013 307.402L38.5928 310.602M25.8013 307.402L66.6071 307.402M25.8013 307.402L12.5198 304.08M-15.0042 307.402L-1.46038 310.602M-15.0042 307.402L-29.0671 304.08M-15.0042 307.402L-50.5854 307.402M38.5928 310.602L-1.46038 310.602M38.5928 310.602L78.6462 310.602M38.5928 310.602L50.9213 313.686M-1.46038 310.602L11.5933 313.686M-1.46038 310.602L-41.5137 310.602M74.2855 319.531L36.3316 319.531M74.2855 319.531L85.366 322.303M74.2855 319.531L112.239 319.531M74.2855 319.531L62.8114 316.66M36.3316 319.531L48.0642 322.303M36.3316 319.531L24.1827 316.66M36.3316 319.531L-1.62237 319.531M85.366 322.303L48.0642 322.303M85.366 322.303L96.0716 324.981M85.366 322.303L122.668 322.303M48.0642 322.303L10.7614 322.303M48.0642 322.303L59.3996 324.981M24.1827 316.66L11.5933 313.686M24.1827 316.66L-14.4468 316.66M24.1827 316.66L62.8114 316.66M-1.62237 319.531L10.7614 322.303M-1.62237 319.531L-14.4468 316.66M-1.62237 319.531L-39.5756 319.531M10.7614 322.303L-26.5403 322.303M10.7614 322.303L22.7274 324.981M59.3996 324.981L96.0716 324.981M59.3996 324.981L22.7274 324.981M59.3996 324.981L70.3591 327.571M-14.4468 316.66L-27.7355 313.686M-14.4468 316.66L-50.5854 316.66M-39.5756 319.531L-26.5403 322.303M-39.5756 319.531L-50.5854 317.19M-39.5756 319.531L-50.5854 319.531M-26.5403 322.303L-13.9446 324.981M-26.5403 322.303L-50.5854 322.303M22.7274 324.981L-13.9446 324.981M22.7274 324.981L34.2957 327.571M-13.9446 324.981L-1.76751 327.571M-13.9446 324.981L-50.5854 324.981M11.5933 313.686L-27.7355 313.686M11.5933 313.686L50.9213 313.686M-41.5137 310.602L-27.7355 313.686M-41.5137 310.602L-50.5854 308.572M-41.5137 310.602L-50.5854 310.602M-27.7355 313.686L-50.5854 313.686M50.9213 313.686L90.2496 313.686M50.9213 313.686L62.8114 316.66M62.8114 316.66L101.44 316.66M-29.0671 304.08L-43.6786 300.627M-29.0671 304.08L12.5198 304.08M-29.0671 304.08L-50.5854 304.08M-50.7098 307.402L-50.5854 307.402M-43.6786 300.627L-1.27984 300.627M-43.6786 300.627L-50.5854 298.995M-43.6786 300.627L-50.5854 300.627M-1.27984 300.627L41.119 300.627M-1.27984 300.627L12.5198 304.08M12.5198 304.08L54.1069 304.08M178.697 316.66L168.906 313.686M178.697 316.66L140.069 316.66M178.697 316.66L217.327 316.66M150.193 319.531L159.97 322.303M150.193 319.531L140.069 316.66M150.193 319.531L112.239 319.531M159.97 322.303L122.668 322.303M159.97 322.303L169.417 324.981M206.089 324.981L169.417 324.981M206.089 324.981L214.613 327.571M206.089 324.981L242.761 324.981M140.069 316.66L129.578 313.686M140.069 316.66L101.44 316.66M112.239 319.531L122.668 322.303M112.239 319.531L101.44 316.66M122.668 322.303L132.744 324.981M169.417 324.981L132.744 324.981M169.417 324.981L178.549 327.571M101.44 316.66L90.2496 313.686M96.0716 324.981L132.744 324.981M96.0716 324.981L106.423 327.571M132.744 324.981L142.486 327.571M168.906 313.686L129.578 313.686M168.906 313.686L208.234 313.686M118.699 310.602L129.578 313.686M118.699 310.602L107.413 307.402M118.699 310.602L78.6462 310.602M129.578 313.686L90.2496 313.686M208.234 313.686L247.562 313.686M208.234 313.686L217.327 316.66M90.2496 313.686L78.6462 310.602M217.327 316.66L255.955 316.66M107.413 307.402L95.6939 304.08M107.413 307.402L66.6071 307.402M78.6462 310.602L66.6071 307.402M66.6071 307.402L54.1069 304.08M137.281 304.08L125.916 300.627M137.281 304.08L95.6939 304.08M137.281 304.08L178.868 304.08M95.6939 304.08L83.5177 300.627M95.6939 304.08L54.1069 304.08M54.1069 304.08L41.119 300.627M125.916 300.627L83.5177 300.627M125.916 300.627L168.315 300.627M70.8563 297.037L83.5177 300.627M70.8563 297.037L57.6805 293.302M70.8563 297.037L27.6135 297.037M83.5177 300.627L41.119 300.627M168.315 300.627L210.714 300.627M168.315 300.627L178.868 304.08M41.119 300.627L27.6135 297.037M178.868 304.08L220.455 304.08M57.6805 293.302L43.9586 289.411M57.6805 293.302L13.5595 293.302M27.6135 297.037L13.5595 293.302M13.5595 293.302L-1.07696 289.411M88.995 289.411L75.6452 285.356M88.995 289.411L43.9586 289.411M88.995 289.411L134.031 289.411M43.9586 289.411L29.6558 285.356M43.9586 289.411L-1.07696 289.411M-1.07696 289.411L-16.3334 285.356M-1.07696 289.411L-46.1133 289.411M-46.1133 289.411L-50.5854 289.411M-46.1133 289.411L-50.5854 288.293M75.6452 285.356L29.6558 285.356M75.6452 285.356L121.635 285.356M14.7338 281.126L29.6558 285.356M14.7338 281.126L-0.847585 276.708M14.7338 281.126L-32.2502 281.125M29.6558 285.356L-16.3334 285.356M121.635 285.356L167.625 285.356M121.635 285.356L134.031 289.411M-16.3334 285.356L-32.2502 281.125M-16.3334 285.356L-50.5854 285.356M134.031 289.411L179.067 289.411M-0.847585 276.708L-17.1331 272.09M-0.847585 276.708L-48.8704 276.708M-32.2502 281.125L-48.8704 276.708M-32.2502 281.125L-50.5854 281.125M-50.8261 285.356L-50.5854 285.356M-48.8704 276.708L-50.5854 276.252M-48.8704 276.708L-50.5854 276.708M31.9758 272.09L16.0719 267.259M31.9758 272.09L-17.1331 272.09M31.9758 272.09L81.0841 272.09M-17.1331 272.09L-34.173 267.259M-17.1331 272.09L-50.5854 272.09M-51.0001 276.142L-50.5854 276.252M16.0719 267.259L-34.173 267.259M16.0719 267.259L66.3169 267.259M-34.173 267.259L-50.5854 267.259M-34.173 267.259L-50.5854 262.606M66.3169 267.259L116.562 267.259M66.3169 267.259L81.0841 272.09M81.0841 272.09L130.193 272.09M-36.383 251.325L17.6087 251.325M-36.383 251.325L-50.5854 247.011M-36.383 251.325L-50.5854 251.325M-50.9761 256.894L-50.5854 256.894M17.6087 251.325L71.6007 251.325M17.6087 251.325L-0.282763 245.472M-50.7419 246.963L-50.5854 247.011M333.212 316.66L326.218 313.686M333.212 316.66L294.584 316.66M333.212 316.66L371.841 316.66M302.009 319.531L309.178 322.303M302.009 319.531L294.584 316.66M302.009 319.531L264.055 319.531M309.178 322.303L271.876 322.303M309.178 322.303L316.105 324.981M352.777 324.981L316.105 324.981M352.777 324.981L355.085 325.962L358.867 327.571M352.777 324.981L389.45 324.981M294.584 316.66L286.89 313.686M294.584 316.66L255.955 316.66M264.055 319.531L271.876 322.303M264.055 319.531L255.955 316.66M271.876 322.303L279.433 324.981M316.105 324.981L279.433 324.981M316.105 324.981L322.802 327.571M255.955 316.66L247.562 313.686M242.761 324.981L250.676 327.571M242.761 324.981L279.433 324.981M279.433 324.981L280.36 325.31L282.202 325.962L286.739 327.571M326.218 313.686L286.89 313.686M326.218 313.686L365.546 313.686M278.913 310.602L286.89 313.686M278.913 310.602L270.636 307.402M278.913 310.602L238.86 310.602M286.89 313.686L247.562 313.686M365.546 313.686L404.874 313.686M365.546 313.686L371.841 316.66M247.562 313.686L238.86 310.602M371.841 316.66L410.47 316.66M270.636 307.402L262.042 304.08M270.636 307.402L229.83 307.402M238.86 310.602L237.749 310.209L229.83 307.402M229.83 307.402L220.455 304.08M303.629 304.08L302.632 303.655L295.512 300.627M303.629 304.08L262.042 304.08M303.629 304.08L345.216 304.08M262.042 304.08L253.113 300.627M262.042 304.08L220.455 304.08M220.455 304.08L210.714 300.627M295.512 300.627L253.113 300.627M295.512 300.627L337.911 300.627M243.828 297.037L253.113 300.627M243.828 297.037L234.166 293.302M243.828 297.037L200.585 297.037M253.113 300.627L210.714 300.627M337.911 300.627L380.31 300.627M337.911 300.627L345.216 304.08M210.714 300.627L200.585 297.037M345.216 304.08L386.803 304.08M234.166 293.302L224.103 289.411M234.166 293.302L190.045 293.302M200.585 297.037L190.045 293.302M190.045 293.302L179.067 289.411M269.139 289.411L259.604 285.356M269.139 289.411L224.103 289.411M269.139 289.411L314.175 289.411M224.103 289.411L213.614 285.356M224.103 289.411L179.067 289.411M179.067 289.411L167.625 285.356M259.604 285.356L213.614 285.356M259.604 285.356L305.593 285.356M202.672 281.126L213.614 285.356M202.672 281.126L191.245 276.708M202.672 281.126L155.688 281.126M213.614 285.356L167.625 285.356M305.593 285.356L351.583 285.356M305.593 285.356L314.175 289.411M167.625 285.356L155.688 281.126M314.175 289.411L359.212 289.411M191.245 276.708L179.302 272.09M191.245 276.708L143.222 276.708M155.688 281.126L143.222 276.708M143.222 276.708L130.193 272.09M228.411 272.09L217.051 267.259M228.411 272.09L179.302 272.09M228.411 272.09L277.52 272.09M179.302 272.09L166.807 267.259M179.302 272.09L130.193 272.09M130.193 272.09L116.562 267.259M217.051 267.259L166.807 267.259M217.051 267.259L267.296 267.259M153.719 262.2L166.807 267.259M153.719 262.2L139.997 256.894M153.719 262.2L102.285 262.2M166.807 267.259L116.562 267.259M267.296 267.259L317.541 267.259M267.296 267.259L277.52 272.09M116.562 267.259L102.285 262.2M277.52 272.09L326.629 272.091M139.997 256.894L125.592 251.325M139.997 256.894L87.3144 256.894M102.285 262.2L87.3144 256.894M87.3144 256.894L71.6007 251.325M179.583 251.325L165.821 245.472M179.583 251.325L125.592 251.325M179.583 251.325L233.575 251.325M125.592 251.325L110.453 245.472M125.592 251.325L71.6007 251.325M71.6007 251.325L55.0855 245.472M165.821 245.472L110.453 245.472M165.821 245.472L221.189 245.472M94.5228 239.313L110.453 245.472M94.5228 239.313L77.7357 232.823M94.5228 239.313L37.7065 239.313M110.453 245.472L55.0855 245.472M221.189 245.472L276.557 245.472M221.189 245.472L233.575 251.325M55.0855 245.472L37.7065 239.313M55.0855 245.472L-0.282763 245.472M233.575 251.325L287.567 251.325M77.7357 232.823L60.0228 225.975M77.7357 232.823L19.3936 232.823M37.7065 239.313L19.3936 232.823M-0.282763 245.472L-50.5854 245.472M19.3936 232.823L0.0701442 225.975M119.975 225.975L102.958 218.738M119.975 225.975L60.0228 225.975M119.975 225.975L179.928 225.975M60.0228 225.975L41.3043 218.738M60.0228 225.975L0.0701442 225.975M0.0701442 225.975L-20.3499 218.738M0.0701442 225.975L-50.5854 225.975M102.958 218.738L41.3043 218.738M102.958 218.738L164.613 218.738M21.4913 211.078L41.3043 218.738M21.4913 211.078L0.486528 202.957M21.4913 211.078L-41.9636 211.078M41.3043 218.738L-20.3499 218.738M164.613 218.738L226.267 218.738M164.613 218.738L179.928 225.975M-20.3499 218.738L-41.9636 211.078M-20.3499 218.738L-50.5854 218.738M179.928 225.975L239.88 225.975M0.486528 202.957L-21.8218 194.332M0.486528 202.957L-50.5854 202.957M-41.9636 211.078L-50.5854 211.078M-41.9636 211.078L-50.5854 208.022M45.571 194.332L23.9925 185.155M45.571 194.332L-21.8218 194.332M45.571 194.332L112.964 194.332M-21.8218 194.332L-45.5582 185.155M-21.8218 194.332L-50.5854 194.332M23.9925 185.155L-45.5582 185.155M23.9925 185.155L93.5433 185.155M-45.5582 185.155L-50.5854 183.211M-45.5582 185.155L-50.5854 185.155M93.5433 185.155L163.094 185.155M93.5433 185.155L112.964 194.332M112.964 194.332L180.357 194.332M-49.9173 153.723L27.0249 153.723M-49.9173 153.723L-50.5854 153.723M-49.9173 153.723L-50.5854 153.439M27.0249 153.723L103.966 153.723M27.0249 153.723L1.59432 141.706M487.727 316.66L486.171 315.558L485.648 315.187L483.531 313.686M487.727 316.66L449.099 316.66M487.727 316.66L526.356 316.66M453.824 319.531L457.26 321.619L458.386 322.303M453.824 319.531L449.698 317.025L449.099 316.66M453.824 319.531L415.87 319.531M458.386 322.303L421.084 322.303M458.386 322.303L462.794 324.981M499.467 324.981L462.794 324.981M499.467 324.981L500.851 325.962L503.12 327.571M499.467 324.981L536.139 324.981M449.099 316.66L447.891 315.927L444.203 313.686M449.099 316.66L410.47 316.66M415.87 319.531L421.084 322.303M415.87 319.531L410.47 316.66M421.084 322.303L424.879 324.32L426.122 324.981M462.794 324.981L426.122 324.981M462.794 324.981L467.056 327.571M410.47 316.66L404.874 313.686M389.45 324.981L390.145 325.31L394.93 327.571M389.45 324.981L426.122 324.981M426.122 324.981L427.968 325.962L430.993 327.571M483.531 313.686L444.203 313.686M483.531 313.686L522.86 313.686M439.126 310.602L444.203 313.686M439.126 310.602L433.859 307.402M439.126 310.602L399.073 310.602M444.203 313.686L404.874 313.686M522.86 313.686L562.188 313.686M522.86 313.686L526.356 316.66M404.874 313.686L399.073 310.602M526.356 316.66L564.985 316.66M433.859 307.402L430.466 305.34L429.777 304.922L428.391 304.08M433.859 307.402L393.054 307.402M399.073 310.602L393.054 307.402M393.054 307.402L386.803 304.08M469.978 304.08L465.107 300.627M469.978 304.08L428.391 304.08M469.978 304.08L511.565 304.08M428.391 304.08L422.708 300.627M428.391 304.08L386.803 304.08M386.803 304.08L380.31 300.627M465.107 300.627L422.708 300.627M465.107 300.627L507.506 300.627M416.799 297.037L420.52 299.298L421.252 299.743L422.708 300.627M416.799 297.037L410.651 293.302M416.799 297.037L373.557 297.037M422.708 300.627L380.31 300.627M507.506 300.627L549.905 300.627M507.506 300.627L511.565 304.08M380.31 300.627L373.557 297.037M511.565 304.08L553.152 304.08M410.651 293.302L404.247 289.411M410.651 293.302L366.53 293.302M373.557 297.037L366.53 293.302M366.53 293.302L359.212 289.411M449.283 289.411L446.453 287.405L445.736 286.897L443.562 285.356M449.283 289.411L404.247 289.411M449.283 289.411L494.32 289.411M404.247 289.411L397.573 285.356M404.247 289.411L359.212 289.411M359.212 289.411L351.583 285.356M443.562 285.356L397.573 285.356M443.562 285.356L489.552 285.356M390.609 281.126L397.573 285.356M390.609 281.126L383.338 276.708M390.609 281.126L343.624 281.126M397.573 285.356L351.583 285.356M489.552 285.356L535.542 285.356M489.552 285.356L490.763 286.386L494.32 289.411M351.583 285.356L343.624 281.126M494.32 289.411L539.355 289.411M383.338 276.708L375.738 272.091M383.338 276.708L335.315 276.708M343.624 281.126L335.315 276.708M335.315 276.708L326.629 272.091M424.847 272.091L418.031 267.259M424.847 272.091L375.738 272.091M424.847 272.091L473.956 272.091M375.738 272.091L367.786 267.259M375.738 272.091L326.629 272.091M326.629 272.091L317.541 267.259M418.031 267.259L367.786 267.259M418.031 267.259L468.276 267.259M359.458 262.2L367.786 267.259M359.458 262.2L350.725 256.894M359.458 262.2L308.022 262.2M367.786 267.259L317.541 267.259M468.276 267.259L518.521 267.259M468.276 267.259L473.956 272.091M317.541 267.259L308.022 262.2M473.956 272.091L523.064 272.091M350.725 256.894L341.559 251.325M350.725 256.894L298.043 256.894M308.022 262.2L298.043 256.894M298.043 256.894L287.567 251.325M395.55 251.325L387.292 245.472M395.55 251.325L341.559 251.325M395.55 251.325L449.542 251.325M341.559 251.325L331.925 245.472M341.559 251.325L287.567 251.325M287.567 251.325L276.557 245.472M387.292 245.472L331.925 245.472M387.292 245.472L442.661 245.472M321.787 239.313L331.925 245.472M321.787 239.313L311.104 232.823M321.787 239.313L264.971 239.313M331.925 245.472L276.557 245.472M442.661 245.472L498.028 245.472M442.661 245.472L449.542 251.325M276.557 245.472L264.971 239.313M449.542 251.325L503.534 251.325M311.104 232.823L299.832 225.975M311.104 232.823L252.762 232.823M264.971 239.313L252.762 232.823M252.762 232.823L239.88 225.975M359.785 225.975L349.575 218.738M359.785 225.975L299.832 225.975M359.785 225.975L419.738 225.975M299.832 225.975L287.921 218.738M299.832 225.975L239.88 225.975M239.88 225.975L226.267 218.738M349.575 218.738L287.921 218.738M349.575 218.738L411.229 218.738M275.313 211.078L287.921 218.738M275.313 211.078L261.946 202.957M275.313 211.078L211.857 211.078M287.921 218.738L226.267 218.738M411.229 218.738L472.883 218.738M411.229 218.738L419.738 225.975M226.267 218.738L211.857 211.078M419.738 225.975L479.69 225.975M261.946 202.957L247.75 194.332M261.946 202.957L196.581 202.957M211.857 211.078L196.581 202.957M196.581 202.957L180.357 194.332M315.143 194.332L302.196 185.155M315.143 194.332L247.75 194.332M315.143 194.332L382.536 194.332M247.75 194.332L232.645 185.155M247.75 194.332L180.357 194.332M180.357 194.332L163.094 185.155M302.196 185.155L232.645 185.155M302.196 185.155L371.746 185.155M216.541 175.371L232.645 185.155M216.541 175.371L199.334 164.917M216.541 175.371L144.688 175.371M232.645 185.155L163.094 185.155M371.746 185.155L441.297 185.155M371.746 185.155L382.536 194.332M163.094 185.155L144.688 175.371M382.536 194.332L449.928 194.332M199.334 164.917L180.908 153.723M199.334 164.917L125.024 164.917M144.688 175.371L125.024 164.917M125.024 164.917L103.966 153.723M257.85 153.723L240.897 141.706M257.85 153.723L180.908 153.723M257.85 153.723L334.791 153.723M180.908 153.723L161.13 141.706M180.908 153.723L103.966 153.723M103.966 153.723L81.3615 141.706M240.897 141.706L161.13 141.706M240.897 141.706L320.664 141.706M139.842 128.774L161.13 141.706M139.842 128.774L116.868 114.816M139.842 128.774L57.034 128.774M161.13 141.706L81.3615 141.706M320.664 141.706L400.431 141.706M320.664 141.706L334.791 153.723M81.3615 141.706L57.034 128.774M81.3615 141.706L1.59432 141.706M334.791 153.723L411.733 153.723M116.868 114.816L91.9975 99.7057M116.868 114.816L30.7782 114.816M57.034 128.774L30.7782 114.816M1.59432 141.706L-50.5854 141.706M30.7782 114.816L2.35397 99.7057M30.7782 114.816L-50.5854 114.816M181.641 99.7057L158.488 83.2949M181.641 99.7057L91.9975 99.7057M181.641 99.7057L271.284 99.7057M91.9975 99.7057L64.9859 83.2949M91.9975 99.7057L2.35397 99.7057M2.35397 99.7057L-28.516 83.2949M2.35397 99.7057L-50.5854 99.7057M158.488 83.2949L64.9859 83.2949M158.488 83.2949L251.99 83.2949M35.5438 65.4078L64.9859 83.2949M35.5438 65.4078L3.32858 45.8357M35.5438 65.4078L-50.5854 65.4078M64.9859 83.2949L-28.516 83.2949M251.99 83.2949L345.492 83.2949M251.99 83.2949L271.284 99.7057M-28.516 83.2949L-50.5854 83.2949M-28.516 83.2949L-50.5854 71.5627M271.284 99.7057L360.927 99.7057M3.32858 45.8357L-32.0712 24.3284M3.32858 45.8357L-50.5854 45.8357M75.2964 24.3285L41.7976 0.584316M75.2964 24.3285L-32.0712 24.3284M75.2964 24.3285L182.663 24.3285M-32.0712 24.3284L-50.5854 13.08M-32.0712 24.3284L-50.5854 24.3284M41.7976 0.584316L154.748 0.584325M41.7976 0.584316L-50.5854 0.584735M154.748 0.584325L267.698 0.584335M154.748 0.584325L182.663 24.3285M182.663 24.3285L290.031 24.3285M642.243 316.661L642.07 316.295L641.898 315.927L641.724 315.558L641.55 315.187L641.021 314.064L640.844 313.686M642.243 316.661L603.613 316.661M642.243 316.661L680.871 316.661M605.639 319.531L607.112 321.619L607.594 322.303M605.639 319.531L604.381 317.749L603.613 316.661M605.639 319.531L567.685 319.531M607.594 322.303L570.292 322.303M607.594 322.303L609.017 324.32L609.484 324.981M646.156 324.981L646.31 325.31L646.921 326.61L647.374 327.571M646.156 324.981L609.484 324.981M646.156 324.981L682.828 324.981M603.613 316.661L603.356 316.295L603.096 315.927L602.836 315.558L602.574 315.187L601.516 313.686M603.613 316.661L564.985 316.66M567.685 319.531L569.649 321.619L570.292 322.303M567.685 319.531L564.985 316.66M570.292 322.303L571.563 323.654L572.501 324.651L572.811 324.981M609.484 324.981L609.715 325.31L610.175 325.962L610.632 326.61L610.859 326.932L611.31 327.571M609.484 324.981L572.811 324.981M564.985 316.66L562.896 314.44L562.188 313.686M536.139 324.981L538.431 326.932L539.183 327.571M536.139 324.981L572.811 324.981M572.811 324.981L574.946 327.252L575.247 327.571M640.844 313.686L601.516 313.686M640.844 313.686L680.172 313.686M599.34 310.602L601.516 313.686M599.34 310.602L597.083 307.402M599.34 310.602L559.287 310.602M601.516 313.686L562.188 313.686M680.172 313.686L719.5 313.686M680.172 313.686L680.871 316.661M562.188 313.686L559.287 310.602M680.871 316.661L719.5 316.661M597.083 307.402L596.504 306.583L595.628 305.34L594.739 304.08M597.083 307.402L556.276 307.402M559.287 310.602L558.916 310.209L556.276 307.402M556.276 307.402L555.893 306.994L555.506 306.583L555.119 306.171L553.152 304.08M636.326 304.08L634.702 300.627M636.326 304.08L594.739 304.08M636.326 304.08L677.913 304.08M594.739 304.08L592.304 300.627M594.739 304.08L553.152 304.08M553.152 304.08L550.729 301.503L550.317 301.066L549.905 300.627M634.702 300.627L592.304 300.627M634.702 300.627L677.101 300.627M589.771 297.037L589.448 296.579L589.122 296.118L588.796 295.654L587.136 293.302M589.771 297.037L591.05 298.85L591.366 299.298L591.679 299.743L592.304 300.627M589.771 297.037L546.528 297.037M592.304 300.627L549.905 300.627M677.101 300.627L719.5 300.627M677.101 300.627L677.913 304.08M549.905 300.627L546.528 297.037M677.913 304.08L719.5 304.08M587.136 293.302L584.741 289.907L584.392 289.411M587.136 293.302L543.015 293.302M546.528 297.037L545.663 296.118L543.015 293.302M543.015 293.302L541.66 291.862L539.355 289.411M629.428 289.411L628.484 287.405L628.246 286.897L627.52 285.356M629.428 289.411L584.392 289.411M629.428 289.411L674.464 289.411M584.392 289.411L581.531 285.356M584.392 289.411L539.355 289.411M539.355 289.411L535.542 285.356M627.52 285.356L581.531 285.356M627.52 285.356L673.511 285.356M578.547 281.126L581.531 285.356M578.547 281.126L575.431 276.708M578.547 281.126L531.562 281.126M581.531 285.356L535.542 285.356M673.511 285.356L719.5 285.356M673.511 285.356L673.753 286.386L674.229 288.414L674.464 289.411M535.542 285.356L531.562 281.126M674.464 289.411L719.5 289.411M575.431 276.708L573.002 273.264L572.173 272.091M575.431 276.708L527.407 276.708M531.562 281.126L527.407 276.708M527.407 276.708L525.26 274.425L523.064 272.091M621.282 272.091L619.01 267.259M621.282 272.091L572.173 272.091M621.282 272.091L670.391 272.091M572.173 272.091L568.765 267.259M572.173 272.091L523.064 272.091M523.064 272.091L518.521 267.259M619.01 267.259L568.765 267.259M619.01 267.259L669.255 267.259M565.196 262.2L566.105 263.487L568.765 267.259M565.196 262.2L561.454 256.894M565.196 262.2L513.761 262.2M568.765 267.259L518.521 267.259M669.255 267.259L719.5 267.259M669.255 267.259L670.391 272.091M518.521 267.259L513.761 262.2M670.391 272.091L719.5 272.091M561.454 256.894L557.525 251.325M561.454 256.894L508.772 256.894M513.761 262.2L508.772 256.894M508.772 256.894L503.534 251.325M611.516 251.325L608.764 245.472M611.516 251.325L557.525 251.325M611.516 251.325L665.508 251.325M557.525 251.325L553.397 245.472M557.525 251.325L503.534 251.325M503.534 251.325L498.028 245.472M608.764 245.472L553.397 245.472M608.764 245.472L664.132 245.472M549.051 239.313L553.397 245.472M549.051 239.313L544.473 232.823M549.051 239.313L492.236 239.313M553.397 245.472L498.028 245.472M664.132 245.472L719.5 245.472M664.132 245.472L665.34 250.609L665.508 251.325M498.028 245.472L492.236 239.313M665.508 251.325L719.5 251.325M544.473 232.823L539.642 225.975M544.473 232.823L486.131 232.823M492.236 239.313L487.688 234.478L486.131 232.823M486.131 232.823L479.69 225.975M599.595 225.975L596.192 218.738M599.595 225.975L539.642 225.975M599.595 225.975L659.547 225.975M539.642 225.975L534.537 218.738M539.642 225.975L479.69 225.975M479.69 225.975L472.883 218.738M596.192 218.738L534.537 218.738M596.192 218.738L657.846 218.738M529.134 211.078L534.537 218.738M529.134 211.078L523.406 202.957M529.134 211.078L465.679 211.078M534.537 218.738L472.883 218.738M657.846 218.738L719.5 218.738M657.846 218.738L659.547 225.975M472.883 218.738L465.679 211.078M659.547 225.975L719.5 225.975M523.406 202.957L517.321 194.332M523.406 202.957L458.041 202.957M465.679 211.078L458.041 202.957M458.041 202.957L449.928 194.332M584.714 194.332L580.398 185.155M584.714 194.332L517.321 194.332M584.714 194.332L652.107 194.332M517.321 194.332L510.848 185.155M517.321 194.332L449.928 194.332M449.928 194.332L441.297 185.155M580.398 185.155L510.848 185.155M580.398 185.155L649.949 185.155M503.946 175.371L510.848 185.155M503.946 175.371L496.571 164.917M503.946 175.371L432.094 175.371M510.848 185.155L441.297 185.155M649.949 185.155L719.5 185.155M649.949 185.155L652.107 194.332M441.297 185.155L432.094 175.371M652.107 194.332L719.5 194.332M496.571 164.917L488.675 153.723M496.571 164.917L422.262 164.917M432.094 175.371L422.262 164.917M422.262 164.917L411.733 153.723M565.617 153.723L559.965 141.706M565.617 153.723L488.675 153.723M565.617 153.723L642.558 153.723M488.675 153.723L480.198 141.706M488.675 153.723L411.733 153.723M411.733 153.723L400.431 141.706M559.965 141.706L480.198 141.706M559.965 141.706L639.733 141.706M471.075 128.774L480.198 141.706M471.075 128.774L461.229 114.816M471.075 128.774L388.267 128.774M480.198 141.706L400.431 141.706M639.733 141.706L719.5 141.706M639.733 141.706L642.558 153.723M400.431 141.706L388.267 128.774M642.558 153.723L719.5 153.723M461.229 114.816L450.57 99.7057M461.229 114.816L375.139 114.816M388.267 128.774L375.139 114.816M375.139 114.816L360.927 99.7057M540.214 99.7057L532.496 83.295M540.214 99.7057L450.57 99.7057M540.214 99.7057L629.856 99.7058M450.57 99.7057L438.994 83.295M450.57 99.7057L360.927 99.7057M360.927 99.7057L345.492 83.2949M532.496 83.295L438.994 83.295M532.496 83.295L625.998 83.295M426.376 65.4079L438.994 83.295M426.376 65.4079L412.57 45.8358M426.376 65.4079L328.668 65.4079M438.994 83.295L345.492 83.2949M625.998 83.295L719.5 83.295M625.998 83.295L629.856 99.7058M345.492 83.2949L328.668 65.4079M629.856 99.7058L719.5 99.7058M412.57 45.8358L397.398 24.3285M412.57 45.8358L310.259 45.8358M328.668 65.4079L310.259 45.8358M310.259 45.8358L290.031 24.3285M504.766 24.3285L493.6 0.584355M504.766 24.3285L397.398 24.3285M504.766 24.3285L612.132 24.3285M397.398 24.3285L380.649 0.584345M397.398 24.3285L290.031 24.3285M290.031 24.3285L267.698 0.584335M380.649 0.584345L493.6 0.584355M380.649 0.584345L267.698 0.584335M493.6 0.584355L606.549 0.584365M606.549 0.584365L719.5 0.584375M606.549 0.584365L612.132 24.3285M612.132 24.3285L719.5 24.3285M796.757 316.661L796.93 316.295L797.102 315.927L797.276 315.558L797.45 315.187L797.802 314.44L797.979 314.064L798.156 313.686M796.757 316.661L758.129 316.661M796.757 316.661L835.387 316.661M757.454 319.531L756.802 322.303M757.454 319.531L758.129 316.661M757.454 319.531L719.5 319.531M756.802 322.303L756.722 322.643L756.642 322.981L756.564 323.318L756.172 324.981M756.802 322.303L719.5 322.303M792.844 324.981L792.69 325.31L792.079 326.61L791.626 327.571M792.844 324.981L756.172 324.981M792.844 324.981L829.516 324.981M758.129 316.661L758.215 316.295L758.301 315.927L758.388 315.558L758.828 313.686M758.129 316.661L719.5 316.661M719.5 319.531L719.5 322.303M719.5 319.531L719.5 316.661M719.5 322.303L719.5 324.981M756.172 324.981L719.5 324.981M756.172 324.981L755.942 325.962L755.865 326.287L755.563 327.571M719.5 316.661L719.5 313.686M682.828 324.981L683.058 325.962L683.135 326.287L683.21 326.61L683.287 326.932L683.361 327.252L683.437 327.571M682.828 324.981L719.5 324.981M719.5 324.981L719.5 327.571M798.156 313.686L758.828 313.686M798.156 313.686L837.484 313.686M759.553 310.602L759.646 310.209L759.739 309.813L760.306 307.402M759.553 310.602L758.828 313.686M759.553 310.602L719.5 310.602M758.828 313.686L719.5 313.686M837.484 313.686L876.812 313.686M837.484 313.686L836.953 314.44L836.688 314.814L836.426 315.187L836.164 315.558L835.904 315.927L835.644 316.295L835.387 316.661M719.5 313.686L719.5 310.602M835.387 316.661L874.015 316.661M760.306 307.402L761.087 304.08M760.306 307.402L719.5 307.402M719.5 310.602L719.5 307.402M719.5 307.402L719.5 304.08M802.674 304.08L804.298 300.627M802.674 304.08L761.087 304.08M802.674 304.08L844.261 304.08M761.087 304.08L761.899 300.627M761.087 304.08L719.5 304.08M719.5 304.08L719.5 300.627M804.298 300.627L761.899 300.627M804.298 300.627L846.696 300.627M762.743 297.037L761.899 300.627M762.743 297.037L763.621 293.302M762.743 297.037L719.5 297.037M761.899 300.627L719.5 300.627M846.696 300.627L889.095 300.627M846.696 300.627L844.261 304.08M719.5 300.627L719.5 297.037M844.261 304.08L885.848 304.08M763.621 293.302L763.959 291.862L764.304 290.399L764.536 289.411M763.621 293.302L719.5 293.302M719.5 297.037L719.5 293.302M719.5 293.302L719.5 289.411M809.572 289.412L810.516 287.405L810.754 286.897L811.479 285.356M809.572 289.412L764.536 289.411M809.572 289.412L854.608 289.412M764.536 289.411L764.77 288.414L765.247 286.386L765.489 285.356M764.536 289.411L719.5 289.411M719.5 289.411L719.5 285.356M811.479 285.356L765.489 285.356M811.479 285.356L857.469 285.356M766.484 281.126L766.358 281.665L765.489 285.356M766.484 281.126L767.523 276.708M766.484 281.126L719.5 281.126M765.489 285.356L719.5 285.356M857.469 285.356L903.458 285.356M857.469 285.356L854.608 289.412M719.5 285.356L719.5 281.126M854.608 289.412L899.645 289.412M767.523 276.708L768.609 272.091M767.523 276.708L719.5 276.708M719.5 281.126L719.5 276.708M719.5 276.708L719.5 272.091M817.718 272.091L819.99 267.259M817.718 272.091L768.609 272.091M817.718 272.091L866.827 272.091M768.609 272.091L769.745 267.259M768.609 272.091L719.5 272.091M719.5 272.091L719.5 267.259M819.99 267.259L769.745 267.259M819.99 267.259L870.234 267.259M770.934 262.2L769.745 267.259M770.934 262.2L772.182 256.894M770.934 262.2L719.5 262.2M769.745 267.259L719.5 267.259M870.234 267.259L920.479 267.259M870.234 267.259L866.827 272.091M719.5 267.259L719.5 262.2M866.827 272.091L915.936 272.091M772.182 256.894L773.492 251.325M772.182 256.894L719.5 256.894M719.5 262.2L719.5 256.894M719.5 256.894L719.5 251.325M827.484 251.325L830.236 245.472M827.484 251.325L773.492 251.325M827.484 251.325L881.475 251.325M773.492 251.325L774.867 245.472M773.492 251.325L719.5 251.325M719.5 251.325L719.5 245.472M830.236 245.472L774.867 245.472M830.236 245.472L885.603 245.472M776.316 239.313L774.867 245.472M776.316 239.313L777.842 232.823M776.316 239.313L719.5 239.313M774.867 245.472L719.5 245.472M885.603 245.472L940.972 245.472M885.603 245.472L881.475 251.325M719.5 245.472L719.5 239.313M881.475 251.325L935.466 251.325M777.842 232.823L779.453 225.975M777.842 232.823L719.5 232.823M719.5 239.313L719.5 232.823M719.5 232.823L719.5 225.975M839.405 225.975L842.808 218.738M839.405 225.975L779.453 225.975M839.405 225.975L899.357 225.975M779.453 225.975L781.154 218.738M779.453 225.975L719.5 225.975M719.5 225.975L719.5 218.738M842.808 218.738L781.154 218.738M842.808 218.738L904.462 218.738M782.955 211.078L781.154 218.738M782.955 211.078L784.865 202.957M782.955 211.078L719.5 211.078M781.154 218.738L719.5 218.738M904.462 218.738L966.117 218.738M904.462 218.738L899.357 225.975M719.5 218.738L719.5 211.078M899.357 225.975L959.31 225.975M784.865 202.957L786.893 194.332M784.865 202.957L719.5 202.957M719.5 211.078L719.5 202.957M719.5 202.957L719.5 194.332M854.286 194.332L858.601 185.155M854.286 194.332L786.893 194.332M854.286 194.332L921.679 194.332M786.893 194.332L789.051 185.155M786.893 194.332L719.5 194.332M719.5 194.332L719.5 185.155M858.601 185.155L789.051 185.155M858.601 185.155L928.152 185.155M791.351 175.371L789.051 185.155M791.351 175.371L793.809 164.917M791.351 175.371L719.5 175.371M789.051 185.155L719.5 185.155M928.152 185.155L997.703 185.155M928.152 185.155L921.679 194.332M719.5 185.155L719.5 175.371M921.679 194.332L989.072 194.332M793.809 164.917L796.442 153.723M793.809 164.917L719.5 164.917M719.5 175.371L719.5 164.917M719.5 164.917L719.5 153.723M873.383 153.723L879.034 141.706M873.383 153.723L796.442 153.723M873.383 153.723L950.325 153.723M796.442 153.723L799.267 141.706M796.442 153.723L719.5 153.723M719.5 153.723L719.5 141.706M879.034 141.706L799.267 141.706M879.034 141.706L958.802 141.706M802.308 128.774L799.267 141.706M802.308 128.774L805.59 114.816M802.308 128.774L719.5 128.774M799.267 141.706L719.5 141.706M958.802 141.706L1038.57 141.706M958.802 141.706L950.325 153.723M719.5 141.706L719.5 128.774M950.325 153.723L1027.27 153.723M805.59 114.816L809.143 99.7058M805.59 114.816L719.5 114.816M719.5 128.774L719.5 114.816M719.5 114.816L719.5 99.7058M898.786 99.7058L906.504 83.295M898.786 99.7058L809.143 99.7058M898.786 99.7058L988.43 99.7058M809.143 99.7058L813.002 83.295M809.143 99.7058L719.5 99.7058M719.5 99.7058L719.5 83.295M906.504 83.295L813.002 83.295M906.504 83.295L1000.01 83.295M817.208 65.4079L813.002 83.295M817.208 65.4079L821.81 45.8358M817.208 65.4079L719.5 65.4079M813.002 83.295L719.5 83.295M1000.01 83.295L1093.51 83.295M1000.01 83.295L988.43 99.7058M719.5 83.295L719.5 65.4079M988.43 99.7058L1078.07 99.7058M821.81 45.8358L826.868 24.3285M821.81 45.8358L719.5 45.8358M719.5 65.4079L719.5 45.8358M719.5 45.8358L719.5 24.3285M934.234 24.3285L945.4 0.584395M934.234 24.3285L826.868 24.3285M934.234 24.3285L1041.6 24.3285M826.868 24.3285L832.451 0.584385M826.868 24.3285L719.5 24.3285M719.5 24.3285L719.5 0.584375M832.451 0.584385L945.4 0.584395M832.451 0.584385L719.5 0.584375M945.4 0.584395L1058.35 0.584404M1058.35 0.584404L1171.3 0.584414M1058.35 0.584404L1041.6 24.3285M1041.6 24.3285L1148.97 24.3286M951.272 316.661L953.352 315.187L955.469 313.686M951.272 316.661L912.644 316.661M951.272 316.661L989.901 316.661M909.269 319.531L906.01 322.303M909.269 319.531L912.644 316.661M909.269 319.531L871.315 319.531M906.01 322.303L868.708 322.303M906.01 322.303L903.639 324.32L902.861 324.981M939.533 324.981L902.861 324.981M939.533 324.981L938.149 325.962L935.88 327.571M939.533 324.981L976.205 324.981M912.644 316.661L916.14 313.686M912.644 316.661L874.015 316.661M871.315 319.531L868.708 322.303M871.315 319.531L874.015 316.661M868.708 322.303L867.437 323.654L866.499 324.651L866.189 324.981M902.861 324.981L866.189 324.981M902.861 324.981L900.569 326.932L899.817 327.571M874.015 316.661L876.104 314.44L876.812 313.686M829.516 324.981L829.285 325.31L828.825 325.962L828.141 326.932L827.69 327.571M829.516 324.981L866.189 324.981M866.189 324.981L865.88 325.31L865.266 325.962L863.754 327.571M955.469 313.686L916.14 313.686M955.469 313.686L994.797 313.686M919.767 310.602L919.306 310.994L918.848 311.384L917.035 312.926L916.14 313.686M919.767 310.602L922.575 308.214L923.529 307.402M919.767 310.602L879.713 310.602M916.14 313.686L876.812 313.686M994.797 313.686L1034.13 313.686M994.797 313.686L991.109 315.927L989.901 316.661M876.812 313.686L879.713 310.602M989.901 316.661L1028.53 316.661M923.529 307.402L924.009 306.994L924.492 306.583L925.953 305.34L926.445 304.922L927.435 304.08M923.529 307.402L882.724 307.402M879.713 310.602L880.084 310.209L882.724 307.402M882.724 307.402L883.107 306.994L883.494 306.583L883.881 306.171L885.848 304.08M969.022 304.08L973.893 300.627M969.022 304.08L927.435 304.08M969.022 304.08L1010.61 304.08M927.435 304.08L931.494 300.627M927.435 304.08L885.848 304.08M885.848 304.08L889.095 300.627M973.893 300.627L931.494 300.627M973.893 300.627L1016.29 300.627M935.714 297.037L931.494 300.627M935.714 297.037L940.106 293.302M935.714 297.037L892.471 297.037M931.494 300.627L889.095 300.627M1016.29 300.627L1058.69 300.627M1016.29 300.627L1010.61 304.08M889.095 300.627L892.471 297.037M1010.61 304.08L1052.2 304.08M940.106 293.302L944.68 289.412M940.106 293.302L895.985 293.302M892.471 297.037L893.337 296.118L895.985 293.302M895.985 293.302L897.34 291.862L898.716 290.399L899.645 289.412M989.716 289.412L992.547 287.405L995.438 285.356M989.716 289.412L944.68 289.412M989.716 289.412L1034.75 289.412M944.68 289.412L949.448 285.356M944.68 289.412L899.645 289.412M899.645 289.412L903.458 285.356M995.438 285.356L949.448 285.356M995.438 285.356L1041.43 285.356M954.422 281.126L949.448 285.356M954.422 281.126L959.616 276.708M954.422 281.126L907.438 281.126M949.448 285.356L903.458 285.356M1041.43 285.356L1087.42 285.356M1041.43 285.356L1034.75 289.412M903.458 285.356L907.438 281.126M1034.75 289.412L1079.79 289.412M959.616 276.708L960.951 275.573L965.044 272.091M959.616 276.708L911.593 276.708M907.438 281.126L911.593 276.708M911.593 276.708L912.125 276.142L913.74 274.425L915.936 272.091M1014.15 272.091L1020.97 267.259M1014.15 272.091L965.044 272.091M1014.15 272.091L1063.26 272.091M965.044 272.091L970.724 267.259M965.044 272.091L915.936 272.091M915.936 272.091L920.479 267.259M1020.97 267.259L970.724 267.259M1020.97 267.259L1071.21 267.259M976.673 262.2L972.922 265.39L970.724 267.259M976.673 262.2L982.911 256.894M976.673 262.2L925.239 262.2M970.724 267.259L920.479 267.259M1071.21 267.259L1121.46 267.259M1071.21 267.259L1063.26 272.091M920.479 267.259L925.239 262.2M1063.26 272.091L1112.37 272.091M982.911 256.894L989.458 251.325M982.911 256.894L930.228 256.894M925.239 262.2L930.228 256.894M930.228 256.894L935.466 251.325M1043.45 251.325L1051.71 245.472M1043.45 251.325L989.458 251.325M1043.45 251.325L1097.44 251.325M989.458 251.325L996.339 245.472M989.458 251.325L935.466 251.325M935.466 251.325L940.972 245.472M1051.71 245.472L996.339 245.472M1051.71 245.472L1107.08 245.472M1003.58 239.313L996.339 245.472M1003.58 239.313L1011.21 232.823M1003.58 239.313L946.764 239.313M996.339 245.472L940.972 245.472M1107.08 245.472L1162.44 245.472M1107.08 245.472L1097.44 251.325M940.972 245.472L946.764 239.313M1097.44 251.325L1151.43 251.325M1011.21 232.823L1019.26 225.975M1011.21 232.823L952.869 232.823M946.764 239.313L952.869 232.823M952.869 232.823L959.31 225.975M1079.21 225.975L1089.42 218.738M1079.21 225.975L1019.26 225.975M1079.21 225.975L1139.17 225.975M1019.26 225.975L1027.77 218.738M1019.26 225.975L959.31 225.975M959.31 225.975L966.117 218.738M1089.42 218.738L1027.77 218.738M1089.42 218.738L1151.08 218.738M1036.78 211.078L1027.77 218.738M1036.78 211.078L1046.32 202.957M1036.78 211.078L973.321 211.078M1027.77 218.738L966.117 218.738M1151.08 218.738L1212.73 218.738M1151.08 218.738L1139.17 225.975M966.117 218.738L973.321 211.078M1139.17 225.975L1199.12 225.975M1046.32 202.957L1056.46 194.332M1046.32 202.957L980.959 202.957M973.321 211.078L980.959 202.957M980.959 202.957L989.072 194.332M1123.86 194.332L1136.8 185.155M1123.86 194.332L1056.46 194.332M1123.86 194.332L1191.25 194.332M1056.46 194.332L1067.25 185.155M1056.46 194.332L989.072 194.332M989.072 194.332L997.703 185.155M1136.8 185.155L1067.25 185.155M1136.8 185.155L1206.36 185.155M1078.76 175.371L1067.25 185.155M1078.76 175.371L1091.05 164.917M1078.76 175.371L1006.91 175.371M1067.25 185.155L997.703 185.155M1206.36 185.155L1275.91 185.155M1206.36 185.155L1191.25 194.332M997.703 185.155L1006.91 175.371M1191.25 194.332L1258.64 194.332M1091.05 164.917L1104.21 153.723M1091.05 164.917L1016.74 164.917M1006.91 175.371L1016.74 164.917M1016.74 164.917L1027.27 153.723M1181.15 153.723L1198.1 141.706M1181.15 153.723L1104.21 153.723M1181.15 153.723L1258.09 153.723M1104.21 153.723L1118.34 141.706M1104.21 153.723L1027.27 153.723M1027.27 153.723L1038.57 141.706M1198.1 141.706L1118.34 141.706M1198.1 141.706L1277.87 141.706M1133.54 128.774L1118.34 141.706M1133.54 128.774L1149.95 114.816M1133.54 128.774L1050.73 128.774M1118.34 141.706L1038.57 141.706M1277.87 141.706L1357.64 141.706M1277.87 141.706L1258.09 153.723M1038.57 141.706L1050.73 128.774M1258.09 153.723L1335.03 153.723M1149.95 114.816L1167.72 99.7058M1149.95 114.816L1063.86 114.816M1050.73 128.774L1063.86 114.816M1063.86 114.816L1078.07 99.7058M1257.36 99.7058L1280.51 83.295M1257.36 99.7058L1167.72 99.7058M1257.36 99.7058L1347 99.7058M1167.72 99.7058L1187.01 83.295M1167.72 99.7058L1078.07 99.7058M1078.07 99.7058L1093.51 83.295M1280.51 83.295L1187.01 83.295M1280.51 83.295L1374.01 83.295M1208.04 65.4079L1187.01 83.295M1208.04 65.4079L1231.05 45.8359M1208.04 65.4079L1110.33 65.4079M1187.01 83.295L1093.51 83.295M1374.01 83.295L1467.52 83.295M1374.01 83.295L1347 99.7058M1093.51 83.295L1110.33 65.4079M1347 99.7058L1436.65 99.7058M1231.05 45.8359L1256.34 24.3286M1231.05 45.8359L1128.74 45.8358M1110.33 65.4079L1128.74 45.8358M1128.74 45.8358L1148.97 24.3286M1363.7 24.3286L1397.2 0.584434M1363.7 24.3286L1256.34 24.3286M1363.7 24.3286L1471.07 24.3286M1256.34 24.3286L1284.25 0.584424M1256.34 24.3286L1148.97 24.3286M1148.97 24.3286L1171.3 0.584414M1284.25 0.584424L1397.2 0.584434M1284.25 0.584424L1171.3 0.584414M1397.2 0.584434L1489.59 0.584869M1471.07 24.3286L1489.59 13.0801M1471.07 24.3286L1489.59 24.3286M1105.79 316.661L1112.78 313.686M1105.79 316.661L1067.16 316.661M1105.79 316.661L1144.42 316.661M1061.08 319.531L1055.22 322.303M1061.08 319.531L1067.16 316.661M1061.08 319.531L1023.13 319.531M1055.22 322.303L1017.92 322.303M1055.22 322.303L1049.55 324.981M1086.22 324.981L1049.55 324.981M1086.22 324.981L1083.91 325.962L1080.13 327.571M1086.22 324.981L1122.89 324.981M1067.16 316.661L1073.45 313.686M1067.16 316.661L1028.53 316.661M1023.13 319.531L1017.92 322.303M1023.13 319.531L1028.53 316.661M1017.92 322.303L1014.12 324.32L1012.88 324.981M1049.55 324.981L1048.85 325.31L1044.07 327.571M1049.55 324.981L1012.88 324.981M1028.53 316.661L1034.13 313.686M976.205 324.981L971.944 327.571M976.205 324.981L1012.88 324.981M1012.88 324.981L1011.03 325.962L1008.01 327.571M1112.78 313.686L1073.45 313.686M1112.78 313.686L1152.11 313.686M1079.98 310.602L1073.45 313.686M1079.98 310.602L1086.75 307.402M1079.98 310.602L1039.93 310.602M1073.45 313.686L1034.13 313.686M1152.11 313.686L1191.44 313.686M1152.11 313.686L1144.42 316.661M1034.13 313.686L1039.93 310.602M1144.42 316.661L1183.04 316.661M1086.75 307.402L1088.49 306.583L1093.78 304.08M1086.75 307.402L1045.95 307.402M1039.93 310.602L1045.95 307.402M1045.95 307.402L1052.2 304.08M1135.37 304.08L1136.37 303.655L1143.49 300.627M1135.37 304.08L1093.78 304.08M1135.37 304.08L1176.96 304.08M1093.78 304.08L1101.09 300.627M1093.78 304.08L1052.2 304.08M1052.2 304.08L1052.99 303.655L1058.69 300.627M1143.49 300.627L1101.09 300.627M1143.49 300.627L1185.89 300.627M1108.69 297.037L1101.09 300.627M1108.69 297.037L1116.59 293.302M1108.69 297.037L1065.44 297.037M1101.09 300.627L1058.69 300.627M1185.89 300.627L1228.29 300.627M1185.89 300.627L1176.96 304.08M1058.69 300.627L1065.44 297.037M1176.96 304.08L1218.54 304.08M1116.59 293.302L1124.82 289.412M1116.59 293.302L1072.47 293.302M1065.44 297.037L1072.47 293.302M1072.47 293.302L1079.79 289.412M1169.86 289.412L1179.4 285.356M1169.86 289.412L1124.82 289.412M1169.86 289.412L1214.9 289.412M1124.82 289.412L1133.41 285.356M1124.82 289.412L1079.79 289.412M1079.79 289.412L1087.42 285.356M1179.4 285.356L1133.41 285.356M1179.4 285.356L1225.39 285.356M1142.36 281.126L1133.41 285.356M1142.36 281.126L1151.71 276.708M1142.36 281.126L1095.38 281.126M1133.41 285.356L1087.42 285.356M1225.39 285.356L1271.38 285.356M1225.39 285.356L1214.9 289.412M1087.42 285.356L1095.38 281.126M1214.9 289.412L1259.93 289.412M1151.71 276.708L1161.48 272.091M1151.71 276.708L1103.69 276.708M1095.38 281.126L1103.69 276.708M1103.69 276.708L1112.37 272.091M1210.59 272.091L1221.95 267.26M1210.59 272.091L1161.48 272.091M1210.59 272.091L1259.7 272.091M1161.48 272.091L1171.7 267.26M1161.48 272.091L1112.37 272.091M1112.37 272.091L1121.46 267.259M1221.95 267.26L1171.7 267.26M1221.95 267.26L1272.19 267.26M1182.41 262.2L1171.7 267.26M1182.41 262.2L1193.64 256.894M1182.41 262.2L1130.98 262.2M1171.7 267.26L1121.46 267.259M1272.19 267.26L1322.44 267.26M1272.19 267.26L1259.7 272.091M1121.46 267.259L1130.98 262.2M1259.7 272.091L1308.81 272.091M1193.64 256.894L1205.42 251.325M1193.64 256.894L1140.96 256.894M1130.98 262.2L1140.96 256.894M1140.96 256.894L1151.43 251.325M1259.42 251.325L1273.18 245.472M1259.42 251.325L1205.42 251.325M1259.42 251.325L1313.41 251.325M1205.42 251.325L1217.81 245.472M1205.42 251.325L1151.43 251.325M1151.43 251.325L1162.44 245.472M1273.18 245.472L1217.81 245.472M1273.18 245.472L1328.55 245.472M1230.85 239.313L1217.81 245.472M1230.85 239.313L1244.58 232.823M1230.85 239.313L1174.03 239.313M1217.81 245.472L1162.44 245.472M1328.55 245.472L1383.91 245.472M1328.55 245.472L1313.41 251.325M1162.44 245.472L1174.03 239.313M1313.41 251.325L1367.4 251.325M1244.58 232.823L1259.07 225.975M1244.58 232.823L1186.24 232.823M1174.03 239.313L1186.24 232.823M1186.24 232.823L1199.12 225.975M1319.02 225.975L1336.04 218.738M1319.02 225.975L1259.07 225.975M1319.02 225.975L1378.98 225.975M1259.07 225.975L1274.39 218.738M1259.07 225.975L1199.12 225.975M1199.12 225.975L1212.73 218.738M1336.04 218.738L1274.39 218.738M1336.04 218.738L1397.7 218.738M1290.6 211.078L1274.39 218.738M1290.6 211.078L1307.78 202.957M1290.6 211.078L1227.14 211.078M1274.39 218.738L1212.73 218.738M1397.7 218.738L1459.35 218.738M1397.7 218.738L1378.98 225.975M1212.73 218.738L1227.14 211.078M1378.98 225.975L1438.93 225.975M1307.78 202.957L1326.04 194.332M1307.78 202.957L1242.42 202.957M1227.14 211.078L1242.42 202.957M1242.42 202.957L1258.64 194.332M1393.43 194.332L1415.01 185.155M1393.43 194.332L1326.04 194.332M1393.43 194.332L1460.82 194.332M1326.04 194.332L1345.46 185.155M1326.04 194.332L1258.64 194.332M1258.64 194.332L1275.91 185.155M1415.01 185.155L1345.46 185.155M1415.01 185.155L1484.56 185.155M1366.16 175.371L1345.46 185.155M1366.16 175.371L1388.29 164.917M1366.16 175.371L1294.31 175.371M1345.46 185.155L1275.91 185.155M1484.56 185.155L1460.82 194.332M1484.56 185.155L1489.59 185.155M1484.56 185.155L1489.59 183.212M1275.91 185.155L1294.31 175.371M1460.82 194.332L1489.59 194.332M1388.29 164.917L1411.98 153.723M1388.29 164.917L1313.98 164.917M1294.31 175.371L1313.98 164.917M1313.98 164.917L1335.03 153.723M1488.92 153.723L1411.98 153.723M1488.92 153.723L1489.59 153.723M1488.92 153.723L1489.59 153.439M1411.98 153.723L1437.41 141.706M1411.98 153.723L1335.03 153.723M1335.03 153.723L1357.64 141.706M1464.77 128.774L1437.41 141.706M1464.77 128.774L1381.97 128.774M1464.77 128.774L1489.59 128.774M1464.77 128.774L1489.59 117.05M1437.41 141.706L1357.64 141.706M1437.41 141.706L1489.59 141.706M1357.64 141.706L1381.97 128.774M1381.97 128.774L1408.22 114.816M1408.22 114.816L1436.65 99.7058M1408.22 114.816L1489.59 114.816M1436.65 99.7058L1467.52 83.295M1436.65 99.7058L1489.59 99.7058M1467.52 83.295L1489.59 83.295M1467.52 83.295L1489.59 71.5628M1260.3 316.661L1270.09 313.686M1260.3 316.661L1221.67 316.661M1260.3 316.661L1298.93 316.661M1212.9 319.531L1204.43 322.303M1212.9 319.531L1221.67 316.661M1212.9 319.531L1174.95 319.531M1204.43 322.303L1167.12 322.303M1204.43 322.303L1196.24 324.981M1232.91 324.981L1196.24 324.981M1232.91 324.981L1224.39 327.571M1232.91 324.981L1269.58 324.981M1221.67 316.661L1230.77 313.686M1221.67 316.661L1183.04 316.661M1174.95 319.531L1167.12 322.303M1174.95 319.531L1183.04 316.661M1167.12 322.303L1159.57 324.981M1196.24 324.981L1195.24 325.31L1188.32 327.571M1196.24 324.981L1159.57 324.981M1183.04 316.661L1191.44 313.686M1122.89 324.981L1116.2 327.571M1122.89 324.981L1159.57 324.981M1159.57 324.981L1158.64 325.31L1152.26 327.571M1270.09 313.686L1230.77 313.686M1270.09 313.686L1309.42 313.686M1240.19 310.602L1230.77 313.686M1240.19 310.602L1249.98 307.402M1240.19 310.602L1200.14 310.602M1230.77 313.686L1191.44 313.686M1309.42 313.686L1348.75 313.686M1309.42 313.686L1298.93 316.661M1191.44 313.686L1200.14 310.602M1298.93 316.661L1337.56 316.661M1249.98 307.402L1260.13 304.08M1249.98 307.402L1209.17 307.402M1200.14 310.602L1201.25 310.209L1209.17 307.402M1209.17 307.402L1218.54 304.08M1301.72 304.08L1313.08 300.627M1301.72 304.08L1260.13 304.08M1301.72 304.08L1343.31 304.08M1260.13 304.08L1270.68 300.627M1260.13 304.08L1218.54 304.08M1218.54 304.08L1228.29 300.627M1313.08 300.627L1270.68 300.627M1313.08 300.627L1355.48 300.627M1281.66 297.037L1270.68 300.627M1281.66 297.037L1293.08 293.302M1281.66 297.037L1238.41 297.037M1270.68 300.627L1228.29 300.627M1355.48 300.627L1397.88 300.627M1355.48 300.627L1343.31 304.08M1228.29 300.627L1238.41 297.037M1343.31 304.08L1384.89 304.08M1293.08 293.302L1304.97 289.412M1293.08 293.302L1248.96 293.302M1238.41 297.037L1248.96 293.302M1248.96 293.302L1259.93 289.412M1350 289.412L1363.35 285.356M1350 289.412L1304.97 289.412M1350 289.412L1395.04 289.412M1304.97 289.412L1317.36 285.356M1304.97 289.412L1259.93 289.412M1259.93 289.412L1271.38 285.356M1363.35 285.356L1317.36 285.356M1363.35 285.356L1409.34 285.356M1330.3 281.126L1317.36 285.356M1330.3 281.126L1343.8 276.708M1330.3 281.126L1283.31 281.126M1317.36 285.356L1271.38 285.356M1409.34 285.356L1455.33 285.356M1409.34 285.356L1395.04 289.412M1271.38 285.356L1283.31 281.126M1395.04 289.412L1440.08 289.412M1343.8 276.708L1357.92 272.091M1343.8 276.708L1295.78 276.708M1283.31 281.126L1295.78 276.708M1295.78 276.708L1308.81 272.091M1407.02 272.091L1422.93 267.26M1407.02 272.091L1357.92 272.091M1407.02 272.091L1456.13 272.091M1357.92 272.091L1372.68 267.26M1357.92 272.091L1308.81 272.091M1308.81 272.091L1322.44 267.26M1422.93 267.26L1372.68 267.26M1388.15 262.2L1372.68 267.26M1388.15 262.2L1404.37 256.894M1388.15 262.2L1336.72 262.2M1372.68 267.26L1322.44 267.26M1322.44 267.26L1336.72 262.2M1456.13 272.091L1489.59 272.091M1404.37 256.894L1421.39 251.325M1404.37 256.894L1351.69 256.894M1336.72 262.2L1351.69 256.894M1351.69 256.894L1367.4 251.325M1475.38 251.325L1421.39 251.325M1475.38 251.325L1489.59 251.325M1475.38 251.325L1489.59 247.011M1421.39 251.325L1439.28 245.472M1421.39 251.325L1367.4 251.325M1367.4 251.325L1383.91 245.472M1458.11 239.313L1439.28 245.472M1458.11 239.313L1477.95 232.823M1458.11 239.313L1401.29 239.313M1458.11 239.313L1489.59 239.313M1439.28 245.472L1383.91 245.472M1439.28 245.472L1489.59 245.472M1383.91 245.472L1401.29 239.313M1489.74 246.964L1489.59 247.011M1477.95 232.823L1419.61 232.823M1477.95 232.823L1489.59 232.823M1477.95 232.823L1489.59 229.016M1401.29 239.313L1419.61 232.823M1419.61 232.823L1438.93 225.975M1438.93 225.975L1459.35 218.738M1438.93 225.975L1489.59 225.975M1480.96 211.078L1459.35 218.738M1480.96 211.078L1489.59 211.078M1480.96 211.078L1489.59 208.023M1459.35 218.738L1489.59 218.738M1414.82 316.661L1427.41 313.686M1414.82 316.661L1376.19 316.661M1414.82 316.661L1453.45 316.661M1364.71 319.531L1353.63 322.303M1364.71 319.531L1376.19 316.661M1364.71 319.531L1326.76 319.531M1353.63 322.303L1316.33 322.303M1353.63 322.303L1342.93 324.981M1379.6 324.981L1342.93 324.981M1379.6 324.981L1368.64 327.571M1379.6 324.981L1416.27 324.981M1376.19 316.661L1388.08 313.686M1376.19 316.661L1337.56 316.661M1326.76 319.531L1316.33 322.303M1326.76 319.531L1337.56 316.661M1316.33 322.303L1306.26 324.981M1342.93 324.981L1306.26 324.981M1342.93 324.981L1332.58 327.571M1337.56 316.661L1348.75 313.686M1269.58 324.981L1260.45 327.571M1269.58 324.981L1306.26 324.981M1306.26 324.981L1296.51 327.571M1427.41 313.686L1388.08 313.686M1427.41 313.686L1466.73 313.686M1400.41 310.602L1388.08 313.686M1400.41 310.602L1413.2 307.402M1400.41 310.602L1360.35 310.602M1388.08 313.686L1348.75 313.686M1466.73 313.686L1453.45 316.661M1466.73 313.686L1489.59 313.686M1348.75 313.686L1360.35 310.602M1453.45 316.661L1489.59 316.661M1413.2 307.402L1426.48 304.08M1413.2 307.402L1372.39 307.402M1360.35 310.602L1372.39 307.402M1372.39 307.402L1384.89 304.08M1468.07 304.08L1482.68 300.627M1468.07 304.08L1426.48 304.08M1468.07 304.08L1489.59 304.08M1426.48 304.08L1440.28 300.627M1426.48 304.08L1384.89 304.08M1384.89 304.08L1397.88 300.627M1454.63 297.037L1440.28 300.627M1454.63 297.037L1469.56 293.302M1454.63 297.037L1411.39 297.037M1454.63 297.037L1489.59 297.037M1440.28 300.627L1482.68 300.627M1440.28 300.627L1397.88 300.627M1482.68 300.627L1489.59 298.996M1482.68 300.627L1489.59 300.627M1397.88 300.627L1411.39 297.037M1469.56 293.302L1485.11 289.412M1469.56 293.302L1425.44 293.302M1469.56 293.302L1489.59 293.302M1411.39 297.037L1425.44 293.302M1425.44 293.302L1440.08 289.412M1485.11 289.412L1440.08 289.412M1485.11 289.412L1489.59 288.293M1485.11 289.412L1489.59 289.412M1440.08 289.412L1455.33 285.356M1471.25 281.126L1455.33 285.356M1471.25 281.126L1487.87 276.708M1471.25 281.126L1489.59 281.126M1455.33 285.356L1489.59 285.356M1489.83 285.356L1489.59 285.356M1487.87 276.708L1489.59 276.708M1487.87 276.708L1489.59 276.252M1490 276.142L1489.59 276.252M1478.58 319.531L1465.54 322.303M1478.58 319.531L1489.59 319.531M1478.58 319.531L1489.59 317.19M1465.54 322.303L1452.94 324.981M1465.54 322.303L1489.59 322.303M1416.27 324.981L1404.7 327.571M1416.27 324.981L1452.94 324.981M1452.94 324.981L1440.77 327.571M1452.94 324.981L1489.59 324.981M214.613 327.571L178.549 327.571M214.613 327.571L250.676 327.571M187.384 330.075L185.203 329.457L178.549 327.571M187.384 330.075L151.909 330.075M178.549 327.571L142.486 327.571M151.909 330.075L149.583 329.457L148.412 329.146L142.486 327.571M142.486 327.571L106.423 327.571M106.423 327.571L70.3591 327.571M250.676 327.571L286.739 327.571M70.3591 327.571L34.2957 327.571M34.2957 327.571L45.4868 330.075M34.2957 327.571L-1.76751 327.571M45.4868 330.075L10.0124 330.075M358.867 327.571L322.802 327.571M358.867 327.571L394.93 327.571M329.282 330.075L327.682 329.457L326.877 329.146L322.802 327.571M329.282 330.075L293.807 330.075M322.802 327.571L286.739 327.571M293.807 330.075L286.739 327.571M394.93 327.571L430.993 327.571M503.12 327.571L467.056 327.571M503.12 327.571L539.183 327.571M471.179 330.075L470.671 329.767L470.162 329.457L469.649 329.146L467.056 327.571M471.179 330.075L435.705 330.075M467.056 327.571L430.993 327.571M435.705 330.075L430.993 327.571M539.183 327.571L575.247 327.571M647.374 327.571L611.31 327.571M647.374 327.571L683.437 327.571M613.077 330.075L611.31 327.571M613.077 330.075L577.602 330.075M611.31 327.571L575.247 327.571M577.602 330.075L577.312 329.767L577.021 329.457L576.728 329.146L575.247 327.571M683.437 327.571L719.5 327.571M791.626 327.571L755.563 327.571M791.626 327.571L827.69 327.571M754.974 330.075L755.563 327.571M754.974 330.075L719.5 330.075M755.563 327.571L719.5 327.571M719.5 330.075L719.5 327.571M827.69 327.571L863.754 327.571M935.88 327.571L899.817 327.571M935.88 327.571L971.944 327.571M896.872 330.075L897.599 329.457L899.072 328.205L899.817 327.571M896.872 330.075L861.398 330.075M899.817 327.571L863.754 327.571M861.398 330.075L861.688 329.767L861.979 329.457L862.272 329.146L863.754 327.571M971.944 327.571L1008.01 327.571M1080.13 327.571L1044.07 327.571M1080.13 327.571L1116.2 327.571M1038.77 330.075L1040.08 329.457L1040.74 329.146L1044.07 327.571M1038.77 330.075L1003.29 330.075M1044.07 327.571L1008.01 327.571M1003.29 330.075L1003.88 329.767L1008.01 327.571M1116.2 327.571L1152.26 327.571M1224.39 327.571L1188.32 327.571M1224.39 327.571L1260.45 327.571M1180.67 330.075L1182.56 329.457L1183.51 329.146L1188.32 327.571M1180.67 330.075L1145.19 330.075M1188.32 327.571L1152.26 327.571M1145.19 330.075L1146.06 329.767L1152.26 327.571M1260.45 327.571L1296.51 327.571M1368.64 327.571L1332.58 327.571M1368.64 327.571L1404.7 327.571M1322.56 330.075L1332.58 327.571M1322.56 330.075L1287.09 330.075M1332.58 327.571L1296.51 327.571M1287.09 330.075L1289.42 329.457L1290.59 329.146L1296.51 327.571M1404.7 327.571L1440.77 327.571M1464.46 330.075L1476.83 327.571M1464.46 330.075L1428.99 330.075M1464.46 330.075L1489.59 330.075M1476.83 327.571L1440.77 327.571M1476.83 327.571L1489.59 324.988M1476.83 327.571L1489.59 327.571M1428.99 330.075L1431.9 329.457L1440.77 327.571M10.0124 330.075L7.10371 329.457L-1.76751 327.571M-1.76751 327.571L-37.8309 327.571M-37.8309 327.571L-50.5854 324.987M-37.8309 327.571L-50.5854 327.571M-50.5854 208.022L-50.5854 211.078M-50.5854 208.022L-50.5854 202.957M-50.5854 211.078L-50.5854 218.738M-50.5854 202.957L-50.5854 201.444L-50.5854 194.332M-50.5854 194.332L-50.5854 185.155M-50.5854 267.259L-50.5854 272.09M-50.5854 267.259L-50.5854 262.606M-50.5854 330.075L-50.5854 327.571M-50.5854 327.571L-50.5854 324.987M-50.5854 324.987L-50.6166 324.981L-50.5854 324.981M-50.5854 324.987L-50.5854 324.981M-50.5854 324.981L-50.5854 322.303M-50.5854 322.303L-50.5854 319.531M-50.5854 319.531L-50.5854 317.19M-50.5854 317.19L-50.5854 316.66M-50.5854 316.66L-50.5854 313.686M-50.5854 313.686L-50.5854 310.602M-50.5854 310.602L-50.5854 308.572M-50.5854 308.572L-50.5854 307.402M-50.5854 307.402L-50.5854 304.08M-50.5854 304.08L-50.5854 300.627M-50.5854 300.627L-50.5854 298.995M-50.5854 298.995L-50.5854 297.037M-50.5854 297.037L-50.5854 293.302M-50.5854 293.302L-50.5854 289.411M-50.5854 289.411L-50.5854 288.293M-50.5854 288.293L-50.5854 285.356M-50.5854 285.356L-50.5854 281.125M-50.5854 281.125L-50.5854 276.708M-50.5854 276.708L-50.5854 276.252M-50.5854 276.252L-50.5854 272.09M-50.5854 262.2L-50.5854 256.894M-50.5854 262.2L-50.5854 262.606M-50.5854 256.894L-50.5854 251.325M-50.5854 251.325L-50.5854 247.011M-50.5854 247.011L-50.5854 245.472M-50.5854 245.472L-50.5854 239.313M-50.5854 239.313L-50.5854 232.823M-50.5854 232.823L-50.5854 229.016M-50.5854 229.016L-50.5854 225.975M-50.5854 225.975L-50.5854 218.738M-50.5854 185.155L-50.5854 183.211M-50.5854 183.211L-50.5854 175.371M-50.5854 175.371L-50.5854 164.917M-50.5854 164.917L-50.5854 153.723M-50.5854 153.723L-50.5854 153.439M-50.5854 153.439L-50.5854 141.706M-50.5854 141.706L-50.5854 128.774M-50.5854 128.774L-50.5854 117.049M-50.5854 117.049L-50.5854 114.816M-50.5854 114.816L-50.5854 99.7057M-50.5854 99.7057L-50.5854 83.2949M-50.5854 83.2949L-50.5854 71.5627M-50.5854 71.5627L-50.5854 65.4078M-50.5854 65.4078L-50.5854 45.8357M-50.5854 45.8357L-50.5854 24.3284M-50.5854 24.3284L-50.5854 13.08M-50.5854 13.08L-50.5854 0.584735M-50.5854 0.584735L-50.5854 0.499987L1489.59 0.500122L1489.59 0.584869M1489.59 262.2L1489.59 256.895M1489.59 262.2L1489.59 262.606M1489.59 262.606L1489.59 267.26M1489.59 267.26L1489.59 272.091M1489.59 272.091L1489.59 276.252M1489.59 276.252L1489.59 276.708M1489.59 276.708L1489.59 281.126M1489.59 281.126L1489.59 285.356M1489.59 285.356L1489.59 288.293M1489.59 288.293L1489.59 289.412M1489.59 289.412L1489.59 293.302M1489.59 293.302L1489.59 297.037M1489.59 297.037L1489.59 298.996M1489.59 298.996L1489.59 300.627M1489.59 300.627L1489.59 304.08M1489.59 304.08L1489.59 307.402M1489.59 307.402L1489.59 308.572M1489.59 308.572L1489.59 310.602M1489.59 310.602L1489.59 313.686M1489.59 313.686L1489.59 316.661M1489.59 316.661L1489.59 317.19M1489.59 317.19L1489.59 319.531M1489.59 319.531L1489.59 322.303M1489.59 322.303L1489.59 324.981M1489.59 324.981L1489.62 324.981L1489.59 324.988M1489.59 324.981L1489.59 324.988M1489.59 324.988L1489.59 327.571M1489.59 327.571L1489.59 330.075M1489.59 0.584869L1489.59 13.0801M1489.59 13.0801L1489.59 24.3286M1489.59 24.3286L1489.59 45.8355M1489.59 45.8355L1489.59 65.408M1489.59 65.408L1489.59 71.5628M1489.59 71.5628L1489.59 83.295M1489.59 83.295L1489.59 99.7058M1489.59 99.7058L1489.59 114.816M1489.59 114.816L1489.59 117.05M1489.59 117.05L1489.59 128.774M1489.59 128.774L1489.59 141.706M1489.59 141.706L1489.59 153.439M1489.59 153.439L1489.59 153.723M1489.59 153.723L1489.59 164.917M1489.59 164.917L1489.59 175.371M1489.59 175.371L1489.59 183.212M1489.59 183.212L1489.59 185.155M1489.59 185.155L1489.59 194.332M1489.59 194.332L1489.59 202.957M1489.59 202.957L1489.59 208.023M1489.59 208.023L1489.59 211.078M1489.59 211.078L1489.59 218.738M1489.59 218.738L1489.59 225.975M1489.59 225.975L1489.59 229.016M1489.59 229.016L1489.59 232.823M1489.59 232.823L1489.59 239.313M1489.59 239.313L1489.59 245.472M1489.59 245.472L1489.59 247.011M1489.59 247.011L1489.59 251.325M1489.59 251.325L1489.59 256.895" stroke="url(#paint0_radial_623_3956)" stroke-opacity="0.2" stroke-width="0.741684" stroke-miterlimit="10" stroke-linecap="round" stroke-linejoin="round"/>
<defs>
<radialGradient id="paint0_radial_623_3956" cx="0" cy="0" r="1" gradientUnits="userSpaceOnUse" gradientTransform="translate(719.5 12.7365) rotate(90) scale(519.702 2412.23)">
<stop/>
<stop offset="0.489074" stop-color="#CED2DF" stop-opacity="0"/>
</radialGradient>
</defs>
</svg>
